<svg width="546" height="725" viewBox="0 0 546 725" fill="none" xmlns="http://www.w3.org/2000/svg">
<g filter="url(#filter0_b_14_21)">
<rect width="586.956" height="359.598" rx="19.9409" transform="matrix(0.406134 0.913813 -0.85298 0.521944 306.73 0)" fill="white" fill-opacity="0.1"/>
</g>
<g clip-path="url(#clip0_14_21)">
<path d="M501.321 493.602L482.441 451.12C481.806 449.697 480.668 448.658 479.274 448.23C477.881 447.802 476.347 448.02 475.008 448.837L446.244 466.438C444.907 467.258 443.876 468.609 443.378 470.195C442.879 471.781 442.954 473.471 443.585 474.896L462.465 517.378C463.1 518.801 464.239 519.841 465.632 520.269C467.026 520.697 468.56 520.478 469.899 519.661L498.663 502.06C500 501.24 501.03 499.889 501.529 498.303C502.027 496.718 501.953 495.027 501.321 493.602ZM465.098 457.895L468.658 465.907L461.488 470.294L457.928 462.283L465.098 457.895ZM479.49 510.798L475.929 502.787L483.099 498.399L486.66 506.411L479.49 510.798ZM496.096 500.636L488.871 505.058L482.923 491.674C482.732 491.247 482.622 490.774 482.599 490.285C482.577 489.795 482.642 489.297 482.792 488.82C482.941 488.343 483.172 487.896 483.471 487.505C483.769 487.113 484.13 486.785 484.533 486.539C484.935 486.293 485.371 486.133 485.815 486.07C486.26 486.007 486.704 486.041 487.123 486.17C487.542 486.299 487.927 486.521 488.257 486.823C488.586 487.125 488.853 487.501 489.043 487.93C489.181 488.242 489.431 488.47 489.736 488.564C490.042 488.658 490.378 488.609 490.671 488.43C490.965 488.251 491.191 487.955 491.3 487.607C491.409 487.259 491.393 486.889 491.254 486.577C490.927 485.839 490.467 485.191 489.899 484.671C489.332 484.151 488.669 483.769 487.947 483.547C487.226 483.325 486.46 483.266 485.695 483.376C484.929 483.485 484.178 483.759 483.486 484.183C482.793 484.607 482.171 485.172 481.657 485.846C481.142 486.52 480.745 487.29 480.487 488.112C480.23 488.933 480.117 489.79 480.155 490.634C480.194 491.477 480.383 492.291 480.712 493.027L482.053 496.045L474.883 500.433L473.542 497.415C473.215 496.677 472.755 496.029 472.187 495.509C471.62 494.99 470.956 494.608 470.235 494.385C469.513 494.163 468.748 494.105 467.982 494.214C467.217 494.323 466.466 494.597 465.773 495.021C465.08 495.445 464.459 496.011 463.945 496.685C463.43 497.359 463.033 498.129 462.775 498.95C462.517 499.771 462.405 500.628 462.443 501.472C462.482 502.315 462.671 503.129 463 503.866C463.138 504.178 463.388 504.406 463.693 504.5C463.999 504.593 464.335 504.545 464.628 504.366C464.921 504.187 465.148 503.89 465.257 503.543C465.366 503.195 465.349 502.825 465.211 502.513C465.02 502.085 464.91 501.613 464.887 501.123C464.865 500.633 464.93 500.135 465.08 499.658C465.229 499.181 465.46 498.734 465.758 498.343C466.057 497.951 466.418 497.623 466.82 497.377C467.223 497.131 467.658 496.972 468.103 496.908C468.548 496.845 468.992 496.879 469.411 497.008C469.83 497.137 470.215 497.359 470.544 497.661C470.874 497.963 471.141 498.339 471.33 498.768L477.278 512.151L468.853 517.307C468.101 517.766 467.239 517.889 466.456 517.649C465.673 517.408 465.033 516.824 464.677 516.025L445.796 473.543C445.442 472.743 445.4 471.793 445.68 470.902C445.96 470.011 446.539 469.252 447.29 468.792L455.716 463.636L461.664 477.018C461.855 477.446 461.965 477.918 461.987 478.408C462.01 478.897 461.945 479.395 461.795 479.872C461.646 480.349 461.415 480.796 461.116 481.188C460.817 481.579 460.457 481.907 460.054 482.153C459.652 482.4 459.216 482.559 458.772 482.622C458.327 482.686 457.883 482.652 457.464 482.523C457.045 482.393 456.66 482.171 456.33 481.869C456.001 481.567 455.734 481.191 455.544 480.763C455.405 480.45 455.156 480.222 454.851 480.129C454.545 480.035 454.209 480.083 453.916 480.262C453.622 480.442 453.396 480.738 453.287 481.085C453.178 481.433 453.194 481.803 453.333 482.116C453.66 482.854 454.12 483.501 454.687 484.021C455.255 484.541 455.918 484.923 456.64 485.145C457.361 485.368 458.127 485.426 458.892 485.317C459.658 485.207 460.408 484.933 461.101 484.509C461.794 484.085 462.416 483.52 462.93 482.846C463.444 482.172 463.842 481.402 464.1 480.581C464.357 479.759 464.47 478.902 464.431 478.059C464.393 477.215 464.204 476.402 463.875 475.665L462.534 472.648L469.704 468.261L471.045 471.277C471.372 472.015 471.832 472.663 472.4 473.183C472.967 473.703 473.631 474.085 474.352 474.307C475.074 474.529 475.839 474.588 476.604 474.478C477.37 474.369 478.121 474.095 478.814 473.671C479.506 473.247 480.128 472.682 480.642 472.008C481.157 471.334 481.554 470.564 481.812 469.742C482.069 468.921 482.182 468.064 482.144 467.22C482.105 466.377 481.916 465.563 481.587 464.827C481.449 464.514 481.199 464.286 480.894 464.193C480.588 464.099 480.252 464.147 479.959 464.326C479.665 464.506 479.439 464.802 479.33 465.149C479.221 465.497 479.237 465.868 479.376 466.18C479.567 466.607 479.677 467.08 479.7 467.569C479.722 468.059 479.657 468.557 479.507 469.034C479.358 469.511 479.127 469.958 478.828 470.349C478.53 470.741 478.169 471.069 477.767 471.315C477.364 471.561 476.928 471.721 476.484 471.784C476.039 471.847 475.595 471.813 475.176 471.684C474.757 471.555 474.372 471.333 474.043 471.031C473.713 470.729 473.446 470.353 473.256 469.924L467.309 456.542L476.054 451.191C476.806 450.732 477.668 450.61 478.451 450.85C479.233 451.09 479.873 451.674 480.229 452.473L499.11 494.955C499.464 495.756 499.506 496.705 499.226 497.596C498.946 498.486 498.367 499.245 497.617 499.706L496.096 500.636Z" fill="white"/>
</g>
<circle cx="20.938" cy="20.938" r="20.938" transform="matrix(0.406134 0.913813 -0.85298 0.521944 316.698 80.2317)" fill="white"/>
<g filter="url(#filter1_b_14_21)">
<path d="M305.723 106.651C295.859 112.686 284.056 109.013 279.36 98.4456C274.663 87.8785 278.852 74.4194 288.716 68.3838C298.579 62.3482 310.382 66.0216 315.079 76.5887C319.775 87.1558 315.586 100.615 305.723 106.651Z" fill="#000E3E"/>
</g>
<g clip-path="url(#clip1_14_21)">
<path d="M213.396 176.67C204.489 162.165 195.761 147.924 187.214 133.948C187.034 133.654 187.094 133.416 187.394 133.232L211.604 118.404C212.021 118.149 212.357 118.23 212.612 118.647L257.712 192.982C257.741 193.029 257.761 193.082 257.769 193.137C257.778 193.191 257.776 193.248 257.763 193.302C257.75 193.356 257.726 193.406 257.694 193.451C257.661 193.496 257.62 193.534 257.572 193.563L233.106 209.221L233.114 209.193C233.049 208.789 232.914 209.467 233.114 209.193C233.086 209.307 233.014 209.406 232.914 209.467L183.506 239.672C183.435 239.715 183.355 239.745 183.272 239.758C183.189 239.771 183.105 239.767 183.023 239.748C182.941 239.728 182.864 239.692 182.797 239.643C182.729 239.594 182.671 239.531 182.627 239.46L167.669 214.641C167.604 214.534 167.583 214.406 167.613 214.285C167.642 214.164 167.718 214.059 167.824 213.994L191.964 199.231C192.323 199.012 192.382 198.73 192.141 198.385C182.819 185.088 166.671 181.333 152.562 189.146C152.465 189.2 152.351 189.215 152.244 189.188C152.137 189.161 152.045 189.094 151.989 189.001L137.106 164.647C136.9 164.31 136.967 164.042 137.307 163.841C144.978 159.194 152.846 156.498 160.912 155.753C181.802 153.813 199.228 160.854 213.19 176.873C213.206 176.9 213.229 176.919 213.258 176.931C213.285 176.951 213.313 176.949 213.342 176.924C213.44 176.856 213.458 176.772 213.396 176.67Z" fill="white"/>
</g>
<g clip-path="url(#clip2_14_21)">
<path d="M227.077 604.739C227.05 604.48 227.017 604.214 226.975 603.942C227.153 603.909 227.326 603.873 227.496 603.835C230.274 603.205 232.16 601.926 232.294 600.439C232.423 599.014 230.905 597.471 228.444 596.338C228.207 596.229 227.961 596.124 227.707 596.022C227.766 595.85 227.821 595.68 227.872 595.513C228.697 592.77 228.526 590.477 227.313 589.607C226.15 588.773 224.075 589.316 221.888 590.889C221.677 591.041 221.465 591.203 221.251 591.374C221.046 591.132 220.841 590.902 220.635 590.686C218.795 588.752 216.885 587.853 215.598 588.441C214.269 589.048 213.655 591.23 213.938 593.99C213.96 594.208 213.989 594.431 214.024 594.659C213.734 594.713 213.452 594.772 213.181 594.838C210.611 595.464 208.897 596.675 208.769 598.095C208.636 599.562 210.211 601.204 212.725 602.355C212.923 602.446 213.13 602.533 213.344 602.619C213.247 602.9 213.159 603.176 213.082 603.446C212.355 606.005 212.553 608.114 213.712 608.945C214.909 609.804 217.097 609.261 219.324 607.651C219.494 607.528 219.666 607.397 219.838 607.259C219.941 607.378 220.044 607.493 220.147 607.605C222.097 609.718 224.152 610.733 225.499 610.118C226.79 609.528 227.349 607.445 227.077 604.739Z" fill="white"/>
<path d="M220.884 606.917C220.791 606.816 220.698 606.711 220.605 606.604C221.339 605.937 222.083 605.15 222.82 604.265C223.939 604.277 225.004 604.221 225.979 604.097C226.017 604.348 226.049 604.594 226.073 604.834C226.306 607.152 225.854 608.837 225.076 609.192C224.247 609.571 222.567 608.741 220.884 606.917ZM218.732 606.823C217.746 607.536 216.78 608.014 215.949 608.22C215.201 608.406 214.623 608.356 214.293 608.119C213.59 607.614 213.431 605.921 214.053 603.733C214.124 603.482 214.205 603.225 214.296 602.963C215.235 603.272 216.283 603.532 217.408 603.738C217.979 604.744 218.581 605.665 219.197 606.469C219.04 606.594 218.885 606.712 218.732 606.823ZM210.525 599.69C209.987 599.129 209.737 598.6 209.774 598.195C209.852 597.333 211.228 596.361 213.426 595.826C213.677 595.765 213.939 595.709 214.21 595.659C214.421 596.636 214.73 597.683 215.126 598.772C214.565 599.753 214.084 600.731 213.701 601.671C213.506 601.593 213.317 601.513 213.136 601.43C212.025 600.921 211.124 600.314 210.525 599.69ZM214.942 593.893C214.816 592.673 214.882 591.588 215.116 590.758C215.326 590.013 215.654 589.534 216.021 589.367C216.802 589.01 218.336 589.732 219.909 591.386C220.1 591.586 220.291 591.8 220.482 592.026C219.733 592.696 218.983 593.468 218.256 594.319C217.121 594.312 216.029 594.375 215.02 594.504C214.989 594.296 214.962 594.092 214.942 593.893ZM222.479 591.718C224.353 590.369 226.031 589.93 226.732 590.433C227.478 590.968 227.618 592.843 226.906 595.211C226.86 595.362 226.81 595.516 226.757 595.672C225.8 595.348 224.754 595.073 223.653 594.858C223.094 593.881 222.498 592.974 221.887 592.168C222.086 592.009 222.283 591.859 222.479 591.718ZM224.466 602.112C224.734 601.73 224.992 601.346 225.237 600.963C225.467 601.694 225.655 602.409 225.798 603.095C225.12 603.179 224.395 603.229 223.635 603.245C223.914 602.88 224.192 602.502 224.466 602.112ZM226.399 596.62C226.136 597.256 225.82 597.918 225.458 598.592C225.284 598.159 225.098 597.725 224.901 597.292C224.705 596.863 224.5 596.442 224.288 596.029C225.03 596.2 225.738 596.398 226.399 596.62ZM220.965 594.464C220.5 594.417 220.036 594.382 219.577 594.358C220.086 593.8 220.603 593.285 221.118 592.822C221.537 593.378 221.95 593.986 222.349 594.635C221.894 594.568 221.432 594.51 220.965 594.464ZM215.803 597.649C215.557 596.903 215.357 596.185 215.208 595.506C215.907 595.418 216.65 595.363 217.422 595.344C217.14 595.707 216.863 596.081 216.593 596.465C216.318 596.856 216.054 597.251 215.803 597.649ZM214.655 602.015C214.923 601.362 215.241 600.687 215.603 600.005C215.777 600.428 215.962 600.855 216.158 601.285C216.36 601.727 216.57 602.159 216.785 602.58C216.025 602.417 215.311 602.228 214.655 602.015ZM221.517 604.223C220.996 604.811 220.476 605.344 219.963 605.812C219.534 605.248 219.11 604.622 218.699 603.946C219.154 604.01 219.62 604.066 220.094 604.113C220.574 604.161 221.049 604.197 221.517 604.223ZM220.185 603.102C219.449 603.028 218.735 602.934 218.05 602.82C217.711 602.197 217.384 601.544 217.075 600.866C216.766 600.192 216.488 599.526 216.24 598.876C216.602 598.266 216.997 597.656 217.418 597.057C217.839 596.459 218.276 595.885 218.724 595.343C219.429 595.359 220.149 595.403 220.874 595.475L220.874 595.475C221.601 595.547 222.316 595.647 223.009 595.77C223.352 596.393 223.679 597.042 223.984 597.71C224.291 598.381 224.568 599.055 224.814 599.722C224.454 600.319 224.062 600.921 223.641 601.52C223.215 602.125 222.782 602.7 222.347 603.24C221.644 603.221 220.92 603.175 220.185 603.102ZM231.289 600.339C231.206 601.254 229.665 602.299 227.266 602.844C227.113 602.878 226.956 602.911 226.795 602.941C226.59 601.948 226.297 600.901 225.925 599.836C226.492 598.857 226.973 597.891 227.35 596.97C227.585 597.064 227.812 597.161 228.03 597.262C230.139 598.233 231.366 599.48 231.289 600.339Z" fill="#2E2E2E"/>
<path d="M222.464 598.405C222.952 599.474 222.49 600.732 221.433 601.215C220.375 601.698 219.122 601.223 218.633 600.154C218.145 599.085 218.607 597.827 219.664 597.344C220.722 596.861 221.975 597.336 222.464 598.405Z" fill="white"/>
</g>
<path d="M288.765 360.414L318.858 342L320.963 346.737L290.87 365.151L288.765 360.414ZM295.621 376.777C295.042 375.476 294.759 374.273 294.772 373.168C294.798 372.055 295.082 371.016 295.626 370.051C296.169 369.086 296.931 368.164 297.912 367.285C298.899 366.421 300.068 365.575 301.419 364.748L303.895 369.147C303.24 369.548 302.615 369.958 302.021 370.378C301.446 370.804 300.942 371.233 300.51 371.665C300.097 372.104 299.806 372.542 299.636 372.981C299.473 373.434 299.486 373.873 299.674 374.297C299.986 374.998 300.507 375.312 301.238 375.237C301.982 375.153 302.784 374.849 303.643 374.323C304.503 373.796 305.29 373.008 306.004 371.958C306.717 370.907 307.341 369.791 307.874 368.609C308.787 366.6 309.659 364.793 310.49 363.187C311.328 361.596 312.226 360.2 313.185 358.999C314.151 357.813 315.276 356.827 316.558 356.042C317.568 355.425 318.558 354.996 319.528 354.756C320.511 354.507 321.434 354.454 322.295 354.596C323.177 354.745 323.964 355.091 324.657 355.634C325.35 356.177 325.914 356.938 326.349 357.918C326.889 359.132 327.153 360.272 327.141 361.339C327.136 362.421 326.892 363.435 326.41 364.381C325.934 365.342 325.257 366.239 324.378 367.075C323.519 367.916 322.496 368.7 321.309 369.427L318.833 365.028C319.338 364.719 319.83 364.381 320.309 364.013C320.808 363.652 321.24 363.276 321.605 362.886C321.969 362.495 322.226 362.096 322.375 361.689C322.524 361.282 322.51 360.881 322.335 360.486C322.062 359.872 321.628 359.598 321.033 359.665C320.451 359.723 319.717 360.024 318.83 360.567C317.683 361.268 316.724 362.274 315.952 363.583C315.18 364.892 314.331 366.537 313.405 368.517C312.318 370.874 311.257 372.9 310.221 374.593C309.193 376.302 307.825 377.678 306.119 378.721C305.041 379.381 303.983 379.871 302.944 380.19C301.919 380.501 300.946 380.595 300.023 380.471C299.106 380.363 298.272 380.008 297.519 379.409C296.773 378.824 296.14 377.947 295.621 376.777ZM300.976 387.888L331.069 369.474L333.174 374.211C334.435 377.048 334.627 379.59 333.751 381.837C332.888 384.075 331.031 386.067 328.179 387.813C326.486 388.848 324.876 389.424 323.348 389.541C321.841 389.664 320.599 389.447 319.623 388.892L306.746 400.872L304.641 396.135L316.144 385.692L315.773 384.859L303.081 392.626L300.976 387.888ZM319.868 382.354C320.258 383.231 320.744 383.817 321.326 384.111C321.922 384.398 322.603 384.446 323.369 384.256C324.135 384.066 324.976 383.691 325.89 383.132C327.323 382.255 328.308 381.327 328.845 380.348C329.402 379.374 329.385 378.223 328.793 376.892L319.868 382.354ZM308.479 404.772L340.736 391.227L343.31 397.017L315.38 420.3L313.334 415.694L319.085 411.059L317.058 406.497L310.526 409.378L308.479 404.772ZM322.018 404.299L323.46 407.545L332.969 399.997L334.507 398.888L334.39 398.625L332.735 399.471L322.018 404.299ZM317.47 425.001L347.563 406.586L352.573 417.859L348.028 420.64L345.124 414.105L337.222 418.94L339.171 423.326L334.626 426.107L332.677 421.721L319.575 429.738L317.47 425.001ZM324.308 440.387L354.401 421.973L356.507 426.71L326.413 445.124L324.308 440.387ZM328.957 450.847L359.05 432.433L361.156 437.17L335.157 453.079L337.944 459.352L333.85 461.857L328.957 450.847ZM339.664 474.938L369.757 456.523L371.862 461.261L359.416 468.877L361.053 472.561L373.5 464.945L375.605 469.682L345.512 488.097L343.407 483.359L356.508 475.342L354.871 471.658L341.769 479.675L339.664 474.938ZM350.426 500.091C349.841 498.775 349.624 497.467 349.775 496.165C349.933 494.879 350.389 493.679 351.144 492.566C351.906 491.468 352.901 490.543 354.129 489.791L371.857 478.943C373.099 478.183 374.315 477.755 375.505 477.66C376.715 477.57 377.815 477.818 378.804 478.403C379.799 479.002 380.59 479.96 381.174 481.276C381.759 482.592 381.973 483.893 381.816 485.18C381.665 486.481 381.209 487.68 380.447 488.779C379.692 489.892 378.7 490.824 377.472 491.576L359.743 502.424C358.515 503.175 357.296 503.596 356.086 503.686C354.882 503.79 353.783 503.542 352.787 502.942C351.798 502.357 351.011 501.407 350.426 500.091ZM354.725 497.46C354.985 498.045 355.392 498.317 355.947 498.275C356.515 498.225 357.078 498.029 357.638 497.687L375.366 486.839C375.926 486.496 376.376 486.063 376.715 485.539C377.069 485.006 377.122 484.462 376.875 483.907C376.635 483.366 376.224 483.105 375.643 483.126C375.082 483.153 374.522 483.338 373.963 483.68L356.234 494.528C355.675 494.871 355.218 495.308 354.865 495.841C354.525 496.365 354.478 496.905 354.725 497.46ZM358.212 517.61C357.634 516.309 357.351 515.106 357.363 514.001C357.389 512.888 357.674 511.849 358.217 510.884C358.761 509.919 359.523 508.997 360.503 508.118C361.491 507.254 362.66 506.408 364.011 505.581L366.487 509.98C365.832 510.381 365.207 510.791 364.612 511.211C364.038 511.637 363.534 512.066 363.101 512.498C362.688 512.937 362.397 513.375 362.228 513.814C362.065 514.267 362.077 514.706 362.266 515.13C362.578 515.831 363.099 516.145 363.829 516.07C364.573 515.986 365.375 515.682 366.235 515.155C367.095 514.629 367.882 513.841 368.595 512.791C369.309 511.74 369.932 510.624 370.466 509.442C371.378 507.433 372.25 505.626 373.082 504.02C373.919 502.429 374.818 501.033 375.777 499.832C376.743 498.646 377.867 497.66 379.15 496.875C380.16 496.257 381.15 495.828 382.119 495.588C383.103 495.34 384.025 495.287 384.887 495.429C385.769 495.578 386.556 495.924 387.249 496.467C387.942 497.01 388.506 497.771 388.941 498.751C389.48 499.964 389.744 501.105 389.732 502.172C389.727 503.254 389.483 504.268 389.001 505.214C388.525 506.174 387.848 507.072 386.97 507.908C386.111 508.749 385.088 509.533 383.901 510.26L381.425 505.861C381.93 505.552 382.422 505.213 382.901 504.846C383.4 504.485 383.832 504.109 384.196 503.718C384.561 503.328 384.818 502.929 384.967 502.522C385.115 502.115 385.102 501.714 384.927 501.319C384.654 500.705 384.22 500.431 383.624 500.498C383.043 500.556 382.308 500.857 381.421 501.4C380.275 502.101 379.316 503.107 378.543 504.416C377.771 505.725 376.923 507.37 375.997 509.349C374.91 511.707 373.848 513.733 372.813 515.426C371.784 517.134 370.417 518.511 368.711 519.554C367.633 520.214 366.574 520.704 365.536 521.023C364.511 521.334 363.537 521.428 362.614 521.304C361.698 521.196 360.864 520.841 360.111 520.242C359.365 519.657 358.732 518.78 358.212 517.61ZM365.774 534.624C365.196 533.323 364.913 532.12 364.925 531.015C364.951 529.902 365.236 528.863 365.779 527.898C366.322 526.933 367.084 526.011 368.065 525.132C369.052 524.268 370.222 523.422 371.573 522.595L374.048 526.994C373.393 527.395 372.769 527.805 372.174 528.225C371.599 528.651 371.096 529.08 370.663 529.512C370.25 529.951 369.959 530.389 369.789 530.828C369.626 531.281 369.639 531.72 369.827 532.144C370.139 532.845 370.66 533.159 371.391 533.084C372.135 533 372.937 532.696 373.797 532.17C374.657 531.643 375.443 530.855 376.157 529.805C376.87 528.754 377.494 527.638 378.028 526.456C378.94 524.447 379.812 522.64 380.643 521.034C381.481 519.443 382.38 518.047 383.339 516.846C384.305 515.66 385.429 514.674 386.712 513.889C387.722 513.271 388.711 512.843 389.681 512.603C390.664 512.354 391.587 512.301 392.449 512.443C393.33 512.592 394.118 512.938 394.811 513.481C395.503 514.024 396.067 514.785 396.503 515.765C397.042 516.979 397.306 518.119 397.294 519.186C397.289 520.268 397.045 521.282 396.563 522.228C396.087 523.189 395.41 524.086 394.531 524.922C393.673 525.763 392.65 526.547 391.462 527.274L388.987 522.875C389.492 522.566 389.984 522.228 390.463 521.86C390.962 521.499 391.394 521.123 391.758 520.733C392.123 520.342 392.379 519.943 392.528 519.536C392.677 519.129 392.664 518.728 392.488 518.333C392.215 517.719 391.781 517.445 391.186 517.512C390.604 517.57 389.87 517.871 388.983 518.414C387.836 519.115 386.877 520.121 386.105 521.43C385.333 522.739 384.484 524.384 383.559 526.363C382.471 528.721 381.41 530.747 380.375 532.44C379.346 534.149 377.979 535.525 376.273 536.568C375.194 537.228 374.136 537.718 373.098 538.037C372.073 538.348 371.099 538.442 370.176 538.318C369.26 538.21 368.425 537.855 367.673 537.256C366.927 536.671 366.294 535.794 365.774 534.624ZM370.69 544.748L402.947 531.203L405.521 536.993L377.591 560.276L375.544 555.67L381.296 551.035L379.269 546.473L372.737 549.354L370.69 544.748ZM384.229 544.275L385.671 547.521L395.18 539.973L396.718 538.864L396.601 538.601L394.946 539.447L384.229 544.275ZM379.681 564.977L409.774 546.563L411.879 551.3L381.786 569.714L379.681 564.977ZM384.33 575.437L414.423 557.023L416.392 561.453L402.66 575.435L401.443 576.681L401.56 576.945L418.634 566.497L420.563 570.84L390.47 589.254L388.696 585.262L402.233 570.842L403.45 569.596L403.333 569.332L386.26 579.78L384.33 575.437Z" fill="#D9D9D9"/>
<path d="M285.583 517.117L299.664 505.739L300.639 507.932L293.238 513.66L292.766 514.005L292.844 514.18L293.365 513.945L301.633 510.169L302.394 511.88L295.022 517.674L294.56 518.04L294.638 518.216L295.149 517.959L303.388 514.117L304.362 516.31L288.351 523.346L287.532 521.503L294.169 516.048L294.991 515.377L294.952 515.29L294.013 515.697L286.402 518.959L285.583 517.117ZM290.337 527.814L305.383 518.606L307.791 524.024L305.518 525.414L304.164 522.366L300.11 524.846L301.085 527.039L298.874 528.392L297.899 526.199L293.662 528.792L295.017 531.84L292.744 533.231L290.337 527.814ZM294.013 536.085L309.059 526.878L310.132 529.29C310.495 530.109 310.673 530.898 310.663 531.657C310.663 532.42 310.448 533.137 310.018 533.809C309.591 534.489 308.924 535.107 308.016 535.662C307.293 536.105 306.616 536.389 305.986 536.514C305.359 536.646 304.747 536.528 304.149 536.159C304.109 536.928 303.818 537.64 303.276 538.297C302.742 538.95 302.048 539.537 301.195 540.059C300.356 540.573 299.55 540.879 298.779 540.979C298.011 541.087 297.321 540.97 296.709 540.628C296.107 540.29 295.624 539.711 295.26 538.892L294.013 536.085ZM297.256 537.113C297.574 537.83 297.982 538.18 298.478 538.165C298.982 538.145 299.605 537.907 300.349 537.452C301.106 536.989 301.629 536.525 301.918 536.06C302.213 535.591 302.201 534.999 301.883 534.282L297.256 537.113ZM303.909 533.042C304.205 533.707 304.579 534.06 305.03 534.1C305.485 534.147 306.047 533.966 306.716 533.556C307.391 533.143 307.831 532.707 308.035 532.247C308.248 531.791 308.211 531.238 307.922 530.587L303.909 533.042ZM300.042 549.651L315.089 540.444L316.161 542.856C316.499 543.617 316.669 544.331 316.67 544.999C316.672 545.668 316.465 546.334 316.048 546.998C315.632 547.662 314.967 548.362 314.052 549.098C313.142 549.841 311.942 550.668 310.455 551.578C308.96 552.493 307.693 553.175 306.652 553.626C305.621 554.08 304.755 554.318 304.052 554.338C303.356 554.355 302.776 554.171 302.31 553.787C301.851 553.398 301.452 552.824 301.114 552.063L300.042 549.651ZM303.306 550.667C303.566 551.251 303.964 551.533 304.501 551.511C305.038 551.489 305.717 551.26 306.539 550.822C307.36 550.385 308.32 549.83 309.418 549.158C310.53 548.477 311.468 547.871 312.23 547.34C312.998 546.804 313.536 546.285 313.842 545.782C314.157 545.282 314.187 544.743 313.93 544.165L303.306 550.667ZM304.156 558.908L319.203 549.7L321.61 555.118L319.338 556.508L317.983 553.459L313.93 555.94L314.904 558.133L312.693 559.486L311.719 557.293L307.481 559.886L308.836 562.934L306.564 564.325L304.156 558.908ZM308.68 569.087L322.635 557.424L323.658 559.726L315.3 566.347L313.886 567.324L313.944 567.456L315.437 566.654L324.848 562.402L325.871 564.705L309.733 571.456L308.68 569.087ZM311.851 576.221L326.898 567.014L329.305 572.431L327.033 573.822L325.678 570.773L321.625 573.254L322.599 575.447L320.388 576.8L319.414 574.607L315.176 577.2L316.531 580.248L314.259 581.639L311.851 576.221ZM315.527 584.493L330.574 575.286L331.626 577.654L318.627 585.609L320.021 588.745L317.974 589.998L315.527 584.493ZM320.08 595.206C319.788 594.548 319.679 593.894 319.755 593.243C319.833 592.6 320.062 592 320.439 591.444C320.82 590.895 321.317 590.432 321.932 590.056L330.796 584.632C331.417 584.252 332.025 584.038 332.62 583.99C333.225 583.946 333.774 584.07 334.269 584.362C334.767 584.662 335.162 585.141 335.454 585.799C335.747 586.457 335.854 587.107 335.775 587.75C335.7 588.401 335.471 589.001 335.091 589.55C334.713 590.107 334.217 590.573 333.603 590.949L324.739 596.373C324.125 596.748 323.515 596.959 322.91 597.003C322.308 597.056 321.758 596.932 321.261 596.632C320.766 596.339 320.373 595.864 320.08 595.206ZM322.23 593.891C322.36 594.183 322.563 594.319 322.84 594.298C323.124 594.273 323.406 594.175 323.686 594.004L332.55 588.58C332.83 588.409 333.055 588.192 333.225 587.93C333.402 587.664 333.428 587.392 333.305 587.114C333.185 586.844 332.979 586.713 332.689 586.724C332.408 586.737 332.128 586.83 331.848 587.001L322.984 592.425C322.705 592.596 322.476 592.815 322.299 593.081C322.13 593.343 322.106 593.613 322.23 593.891ZM322.87 601.014L337.916 591.807L338.969 594.176C339.369 595.075 339.518 595.937 339.416 596.762C339.317 597.594 338.996 598.367 338.454 599.08C337.911 599.793 337.183 600.43 336.269 600.989C335.354 601.549 334.496 601.874 333.695 601.964C332.893 602.055 332.17 601.912 331.525 601.535C330.89 601.161 330.362 600.549 329.941 599.7L323.923 603.383L322.87 601.014ZM332.193 598.322C332.378 598.739 332.6 599.022 332.857 599.171C333.121 599.316 333.443 599.338 333.823 599.236C334.206 599.141 334.66 598.933 335.186 598.611C335.718 598.285 336.127 597.965 336.413 597.651C336.701 597.344 336.869 597.018 336.916 596.674C336.965 596.336 336.899 595.963 336.717 595.554L332.193 598.322ZM326.784 609.821L341.831 600.614L344.238 606.031L341.966 607.422L340.611 604.373L336.558 606.853L337.532 609.047L335.321 610.399L334.347 608.206L330.109 610.799L331.464 613.848L329.192 615.238L326.784 609.821ZM330.46 618.093L345.507 608.886L346.559 611.254C347.19 612.672 347.286 613.943 346.848 615.067C346.417 616.186 345.488 617.182 344.062 618.055C343.216 618.573 342.41 618.861 341.647 618.919C340.893 618.98 340.272 618.872 339.784 618.594L333.345 624.584L332.293 622.216L338.044 616.995L337.859 616.578L331.513 620.461L330.46 618.093ZM339.906 615.325C340.101 615.764 340.344 616.057 340.635 616.204C340.933 616.347 341.274 616.371 341.657 616.276C342.04 616.182 342.46 615.994 342.917 615.714C343.634 615.276 344.126 614.812 344.395 614.322C344.673 613.836 344.665 613.26 344.369 612.595L339.906 615.325Z" fill="#D9D9D9"/>
<path d="M296.959 424.125C296.778 423.718 296.69 423.342 296.694 422.997C296.702 422.649 296.791 422.324 296.961 422.023C297.131 421.721 297.369 421.433 297.675 421.159C297.984 420.888 298.349 420.624 298.771 420.366L299.545 421.74C299.34 421.866 299.145 421.994 298.959 422.125C298.78 422.258 298.622 422.392 298.487 422.527C298.358 422.664 298.267 422.801 298.214 422.938C298.163 423.08 298.167 423.217 298.226 423.35C298.323 423.569 298.486 423.667 298.714 423.643C298.947 423.617 299.198 423.522 299.466 423.358C299.735 423.193 299.981 422.947 300.204 422.619C300.427 422.291 300.622 421.942 300.788 421.572C301.074 420.945 301.346 420.38 301.606 419.878C301.868 419.381 302.148 418.944 302.448 418.569C302.75 418.199 303.101 417.891 303.502 417.645C303.818 417.452 304.127 417.318 304.43 417.243C304.737 417.165 305.026 417.149 305.295 417.193C305.571 417.24 305.817 417.348 306.033 417.518C306.25 417.687 306.426 417.925 306.562 418.231C306.73 418.611 306.813 418.967 306.809 419.3C306.808 419.638 306.731 419.955 306.581 420.251C306.432 420.551 306.22 420.832 305.946 421.093C305.678 421.356 305.358 421.601 304.987 421.828L304.213 420.453C304.371 420.357 304.525 420.251 304.674 420.136C304.83 420.023 304.965 419.906 305.079 419.784C305.193 419.662 305.273 419.537 305.32 419.41C305.366 419.282 305.362 419.157 305.307 419.034C305.222 418.842 305.086 418.756 304.9 418.777C304.719 418.795 304.489 418.889 304.212 419.059C303.854 419.278 303.554 419.592 303.313 420.002C303.071 420.411 302.806 420.925 302.517 421.543C302.177 422.28 301.845 422.913 301.522 423.442C301.2 423.976 300.773 424.406 300.24 424.732C299.903 424.939 299.572 425.092 299.248 425.191C298.928 425.289 298.623 425.318 298.335 425.279C298.048 425.245 297.788 425.135 297.553 424.947C297.319 424.764 297.122 424.49 296.959 424.125ZM298.633 427.597L308.037 421.843L308.695 423.323L305.56 425.241L305.406 425.335L305.431 425.39L305.615 425.364L309.261 424.598L309.937 426.119L306.238 426.657L300.612 432.052L299.936 430.53L303.784 426.921L303.766 426.88L302.617 427.042L299.291 429.077L298.633 427.597ZM301.222 433.423L310.626 427.668L311.284 429.149L301.88 434.903L301.222 433.423ZM302.675 436.691L312.079 430.937L312.737 432.417L304.612 437.389L305.483 439.349L304.204 440.132L302.675 436.691ZM304.776 441.419L314.18 435.665L314.838 437.145L306.713 442.117L307.584 444.077L306.305 444.86L304.776 441.419ZM306.877 446.147L316.281 440.393L317.786 443.779L316.366 444.648L315.519 442.742L312.986 444.292L313.595 445.663L312.213 446.509L311.604 445.138L308.955 446.759L309.802 448.664L308.382 449.533L306.877 446.147ZM309.175 451.317L318.579 445.562L319.249 447.07C319.46 447.545 319.566 447.992 319.567 448.41C319.569 448.827 319.439 449.244 319.179 449.659C318.918 450.074 318.502 450.511 317.931 450.971C317.362 451.436 316.612 451.953 315.683 452.522C314.749 453.093 313.956 453.52 313.306 453.802C312.662 454.085 312.12 454.234 311.681 454.247C311.246 454.257 310.883 454.142 310.592 453.902C310.305 453.659 310.056 453.3 309.845 452.825L309.175 451.317ZM311.214 451.952C311.377 452.317 311.626 452.493 311.962 452.48C312.297 452.466 312.722 452.322 313.235 452.049C313.748 451.776 314.348 451.429 315.035 451.009C315.73 450.583 316.316 450.205 316.792 449.873C317.272 449.538 317.608 449.213 317.799 448.899C317.997 448.586 318.015 448.249 317.855 447.888L311.214 451.952ZM313.441 460.917L322.242 453.806L322.851 455.176L318.226 458.756L317.931 458.972L317.98 459.081L318.305 458.935L323.473 456.574L323.948 457.644L319.341 461.265L319.052 461.494L319.101 461.604L319.42 461.443L324.569 459.042L325.179 460.412L315.171 464.81L314.66 463.658L318.808 460.249L319.321 459.83L319.297 459.775L318.71 460.029L313.953 462.068L313.441 460.917ZM316.412 467.602L325.817 461.848L327.321 465.234L325.901 466.103L325.054 464.197L322.521 465.747L323.13 467.118L321.748 467.964L321.139 466.593L318.491 468.214L319.337 470.119L317.917 470.988L316.412 467.602ZM318.71 472.772L328.114 467.017L328.784 468.525C329.012 469.037 329.122 469.53 329.116 470.005C329.116 470.481 328.982 470.929 328.713 471.35C328.446 471.774 328.029 472.16 327.462 472.508C327.01 472.784 326.587 472.962 326.193 473.04C325.801 473.123 325.419 473.049 325.045 472.818C325.02 473.299 324.838 473.744 324.5 474.155C324.166 474.562 323.732 474.929 323.199 475.256C322.674 475.577 322.171 475.768 321.689 475.831C321.209 475.898 320.778 475.825 320.395 475.611C320.019 475.4 319.717 475.038 319.49 474.526L318.71 472.772ZM320.737 473.415C320.936 473.862 321.191 474.081 321.501 474.072C321.816 474.059 322.205 473.911 322.67 473.626C323.144 473.337 323.47 473.047 323.651 472.756C323.835 472.463 323.828 472.093 323.629 471.645L320.737 473.415ZM324.895 470.87C325.08 471.286 325.314 471.506 325.596 471.531C325.88 471.56 326.231 471.447 326.649 471.192C327.072 470.933 327.346 470.66 327.474 470.373C327.607 470.088 327.584 469.742 327.403 469.336L324.895 470.87ZM322.478 481.251L331.882 475.496L332.553 477.004C332.764 477.479 332.87 477.926 332.871 478.343C332.872 478.761 332.743 479.177 332.482 479.592C332.222 480.007 331.806 480.445 331.235 480.905C330.666 481.369 329.916 481.886 328.986 482.455C328.052 483.027 327.26 483.453 326.61 483.735C325.965 484.019 325.424 484.167 324.985 484.18C324.55 484.191 324.187 484.076 323.896 483.835C323.609 483.593 323.36 483.234 323.148 482.758L322.478 481.251ZM324.518 481.885C324.681 482.251 324.93 482.427 325.265 482.413C325.601 482.4 326.025 482.256 326.539 481.983C327.052 481.709 327.652 481.363 328.338 480.942C329.034 480.517 329.619 480.138 330.096 479.806C330.576 479.472 330.912 479.147 331.103 478.832C331.3 478.52 331.319 478.183 331.159 477.822L324.518 481.885ZM325.05 487.036L334.454 481.282L335.958 484.667L334.538 485.536L333.691 483.631L331.158 485.181L331.767 486.552L330.385 487.397L329.776 486.027L327.128 487.647L327.975 489.553L326.554 490.422L325.05 487.036ZM327.877 493.398L336.599 486.108L337.239 487.548L332.015 491.686L331.131 492.296L331.167 492.379L332.1 491.878L337.982 489.22L338.622 490.659L328.535 494.879L327.877 493.398ZM329.859 497.857L339.263 492.103L340.768 495.488L339.348 496.357L338.501 494.452L335.967 496.002L336.577 497.373L335.195 498.219L334.586 496.848L331.937 498.468L332.784 500.374L331.364 501.243L329.859 497.857ZM332.157 503.027L341.561 497.272L342.219 498.753L334.094 503.724L334.965 505.684L333.686 506.467L332.157 503.027ZM335.002 509.723C334.819 509.311 334.752 508.903 334.799 508.496C334.848 508.094 334.991 507.719 335.227 507.371C335.465 507.028 335.775 506.739 336.159 506.504L341.699 503.114C342.088 502.876 342.468 502.743 342.839 502.713C343.218 502.685 343.561 502.762 343.87 502.945C344.181 503.132 344.428 503.432 344.611 503.843C344.794 504.254 344.861 504.661 344.811 505.063C344.764 505.469 344.622 505.844 344.384 506.188C344.148 506.535 343.838 506.827 343.454 507.062L337.914 510.452C337.53 510.687 337.149 510.818 336.771 510.846C336.395 510.878 336.051 510.801 335.74 510.614C335.431 510.431 335.185 510.134 335.002 509.723ZM336.346 508.901C336.427 509.083 336.554 509.168 336.727 509.155C336.905 509.14 337.081 509.078 337.256 508.971L342.796 505.581C342.971 505.474 343.111 505.339 343.218 505.175C343.328 505.009 343.345 504.839 343.268 504.665C343.192 504.496 343.064 504.415 342.883 504.421C342.707 504.43 342.532 504.487 342.357 504.594L336.817 507.984C336.642 508.091 336.5 508.228 336.389 508.394C336.283 508.558 336.268 508.727 336.346 508.901ZM336.746 513.353L346.15 507.598L346.808 509.079C347.058 509.641 347.151 510.179 347.087 510.695C347.025 511.215 346.825 511.698 346.486 512.144C346.147 512.59 345.691 512.987 345.12 513.337C344.548 513.687 344.012 513.89 343.511 513.946C343.01 514.003 342.558 513.914 342.155 513.678C341.758 513.444 341.428 513.062 341.165 512.531L337.404 514.833L336.746 513.353ZM342.573 511.67C342.688 511.931 342.827 512.107 342.988 512.201C343.153 512.292 343.354 512.305 343.591 512.241C343.831 512.182 344.115 512.052 344.443 511.851C344.776 511.647 345.031 511.447 345.21 511.251C345.39 511.059 345.495 510.855 345.524 510.64C345.555 510.429 345.514 510.196 345.4 509.94L342.573 511.67ZM339.192 518.857L348.596 513.103L350.101 516.488L348.681 517.357L347.834 515.452L345.301 517.002L345.91 518.373L344.528 519.218L343.919 517.848L341.27 519.468L342.117 521.374L340.697 522.243L339.192 518.857ZM341.49 524.027L350.894 518.272L351.552 519.753C351.946 520.639 352.006 521.433 351.732 522.136C351.462 522.835 350.882 523.458 349.991 524.003C349.462 524.327 348.959 524.507 348.481 524.543C348.01 524.582 347.622 524.514 347.317 524.34L343.293 528.084L342.635 526.604L346.23 523.34L346.114 523.08L342.148 525.507L341.49 524.027ZM347.393 522.297C347.515 522.571 347.667 522.754 347.849 522.846C348.035 522.936 348.248 522.951 348.488 522.892C348.727 522.832 348.99 522.715 349.275 522.54C349.723 522.266 350.031 521.976 350.199 521.67C350.373 521.366 350.367 521.006 350.183 520.59L347.393 522.297ZM345.667 533.426L354.468 526.315L355.077 527.685L350.452 531.265L350.157 531.481L350.206 531.59L350.531 531.444L355.699 529.083L356.174 530.153L351.566 533.774L351.278 534.003L351.326 534.112L351.646 533.952L356.795 531.551L357.404 532.921L347.397 537.319L346.885 536.167L351.033 532.757L351.547 532.339L351.523 532.284L350.936 532.538L346.179 534.577L345.667 533.426ZM348.638 540.111L358.042 534.357L358.7 535.837L349.296 541.592L348.638 540.111ZM350.53 544.367L358.514 539.482L357.892 538.083L359.312 537.214L361.213 541.491L359.793 542.36L359.172 540.962L351.188 545.847L350.53 544.367ZM352.418 548.617L361.823 542.862L362.48 544.343L358.591 546.723L359.103 547.874L362.992 545.494L363.65 546.974L354.246 552.729L353.588 551.248L357.682 548.743L357.171 547.592L353.076 550.097L352.418 548.617ZM356.978 559.168C356.789 558.743 356.718 558.333 356.765 557.938C356.812 557.543 356.956 557.179 357.198 556.845C357.442 556.515 357.761 556.23 358.153 555.99L363.437 552.757C363.778 552.548 364.103 552.393 364.41 552.292C364.724 552.193 365.015 552.157 365.283 552.185C365.556 552.215 365.804 552.32 366.024 552.499C366.245 552.678 366.432 552.941 366.586 553.288C366.743 553.64 366.821 553.969 366.822 554.277C366.83 554.586 366.769 554.876 366.64 555.147C366.512 555.423 366.328 555.678 366.085 555.914C365.845 556.154 365.556 556.377 365.219 556.583L364.758 556.865L364.101 555.385C364.403 555.199 364.662 555.03 364.875 554.876C365.089 554.722 365.241 554.576 365.332 554.439C365.427 554.299 365.445 554.161 365.384 554.024C365.323 553.887 365.227 553.818 365.096 553.816C364.965 553.815 364.813 553.856 364.638 553.94C364.464 554.023 364.283 554.122 364.095 554.237L362.649 555.122C362.759 555.136 362.876 555.192 363.001 555.29C363.132 555.39 363.241 555.538 363.329 555.735C363.436 555.977 363.492 556.219 363.496 556.46C363.503 556.706 363.457 556.946 363.36 557.18C363.268 557.411 363.123 557.633 362.925 557.847C362.727 558.061 362.477 558.261 362.174 558.446L359.871 559.856C359.474 560.098 359.09 560.241 358.718 560.282C358.35 560.321 358.015 560.25 357.712 560.07C357.409 559.889 357.164 559.588 356.978 559.168ZM358.18 558.432C358.251 558.592 358.375 558.662 358.55 558.641C358.732 558.623 358.902 558.566 359.059 558.469L361.606 556.911C361.759 556.817 361.887 556.696 361.988 556.546C362.09 556.397 362.106 556.242 362.034 556.082C361.965 555.927 361.848 555.851 361.681 555.854C361.52 555.859 361.357 555.913 361.191 556.014L358.657 557.565C358.5 557.661 358.36 557.787 358.239 557.942C358.125 558.1 358.105 558.263 358.18 558.432ZM359.913 565.48L369.317 559.726L370.152 561.604L365.637 565.395L365.168 565.769L365.18 565.797L365.71 565.56L370.944 563.386L371.779 565.264L362.374 571.018L361.765 569.647L368.073 565.787L368.036 565.705L367.615 565.893L361.314 568.633L360.973 567.865L366.495 563.371L366.867 563.073L366.83 562.991L360.522 566.851L359.913 565.48ZM363.913 574.773C363.73 574.362 363.663 573.953 363.71 573.546C363.759 573.144 363.901 572.769 364.137 572.421C364.375 572.078 364.686 571.789 365.07 571.554L370.61 568.164C370.998 567.927 371.378 567.793 371.75 567.763C372.128 567.735 372.472 567.813 372.781 567.995C373.092 568.183 373.339 568.482 373.522 568.893C373.705 569.304 373.771 569.711 373.722 570.113C373.675 570.52 373.533 570.895 373.295 571.238C373.059 571.586 372.749 571.877 372.365 572.112L366.825 575.502C366.441 575.737 366.06 575.868 365.682 575.896C365.306 575.929 364.962 575.851 364.651 575.664C364.342 575.481 364.096 575.184 363.913 574.773ZM365.257 573.951C365.338 574.134 365.465 574.219 365.638 574.206C365.816 574.19 365.992 574.129 366.167 574.022L371.707 570.632C371.882 570.525 372.022 570.389 372.129 570.225C372.239 570.059 372.256 569.889 372.178 569.715C372.103 569.546 371.975 569.465 371.793 569.471C371.618 569.48 371.443 569.538 371.268 569.645L365.728 573.035C365.553 573.142 365.411 573.278 365.3 573.445C365.194 573.609 365.179 573.777 365.257 573.951ZM365.657 578.403L375.061 572.649L375.676 574.033L371.385 578.402L371.005 578.792L371.041 578.874L376.377 575.609L376.98 576.966L367.576 582.721L367.021 581.473L371.252 576.967L371.632 576.578L371.595 576.495L366.26 579.76L365.657 578.403ZM368.803 585.483L376.787 580.598L376.166 579.2L377.586 578.331L379.487 582.607L378.067 583.476L377.445 582.078L369.461 586.964L368.803 585.483ZM370.692 589.733L380.096 583.978L380.754 585.459L376.865 587.839L377.376 588.99L381.266 586.61L381.924 588.091L372.52 593.845L371.862 592.365L375.956 589.859L375.444 588.708L371.35 591.213L370.692 589.733ZM374.001 597.47C373.82 597.063 373.731 596.687 373.735 596.342C373.743 595.994 373.832 595.67 374.002 595.368C374.172 595.067 374.41 594.778 374.717 594.504C375.025 594.234 375.39 593.969 375.813 593.711L376.586 595.086C376.382 595.211 376.186 595.339 376 595.47C375.821 595.603 375.664 595.737 375.528 595.873C375.399 596.01 375.308 596.147 375.255 596.284C375.204 596.425 375.208 596.562 375.267 596.695C375.365 596.914 375.528 597.012 375.756 596.989C375.988 596.963 376.239 596.867 376.508 596.703C376.776 596.539 377.022 596.292 377.245 595.964C377.468 595.636 377.663 595.287 377.83 594.918C378.115 594.29 378.387 593.725 378.647 593.223C378.909 592.726 379.19 592.29 379.49 591.914C379.791 591.544 380.143 591.236 380.544 590.99C380.859 590.797 381.169 590.663 381.472 590.588C381.779 590.511 382.067 590.494 382.336 590.539C382.612 590.585 382.858 590.693 383.074 590.863C383.291 591.032 383.467 591.27 383.603 591.577C383.772 591.956 383.854 592.312 383.851 592.646C383.849 592.984 383.773 593.301 383.622 593.596C383.473 593.896 383.262 594.177 382.987 594.438C382.719 594.701 382.399 594.946 382.028 595.173L381.254 593.798C381.412 593.702 381.566 593.596 381.716 593.481C381.872 593.368 382.007 593.251 382.121 593.129C382.235 593.007 382.315 592.882 382.361 592.755C382.408 592.628 382.404 592.502 382.349 592.379C382.263 592.187 382.128 592.102 381.942 592.122C381.76 592.141 381.531 592.235 381.253 592.404C380.895 592.623 380.595 592.938 380.354 593.347C380.113 593.756 379.847 594.27 379.558 594.889C379.218 595.625 378.887 596.258 378.563 596.788C378.242 597.321 377.814 597.751 377.281 598.078C376.944 598.284 376.614 598.437 376.289 598.537C375.969 598.634 375.665 598.663 375.376 598.624C375.09 598.59 374.829 598.48 374.594 598.292C374.361 598.11 374.163 597.835 374.001 597.47ZM266.005 395.978C265.823 395.567 265.755 395.158 265.802 394.751C265.851 394.349 265.994 393.974 266.23 393.626C266.468 393.283 266.779 392.994 267.163 392.759L272.703 389.369C273.091 389.132 273.471 388.998 273.843 388.968C274.221 388.94 274.564 389.017 274.873 389.2C275.185 389.388 275.431 389.687 275.614 390.098C275.797 390.509 275.864 390.916 275.815 391.318C275.767 391.725 275.625 392.1 275.387 392.443C275.151 392.791 274.841 393.082 274.457 393.317L268.917 396.707C268.533 396.942 268.152 397.073 267.774 397.101C267.398 397.134 267.054 397.056 266.743 396.869C266.434 396.686 266.188 396.389 266.005 395.978ZM267.349 395.156C267.43 395.339 267.557 395.423 267.731 395.41C267.908 395.395 268.084 395.333 268.259 395.226L273.799 391.836C273.974 391.729 274.115 391.594 274.221 391.43C274.331 391.264 274.348 391.094 274.271 390.92C274.196 390.751 274.067 390.67 273.886 390.676C273.71 390.685 273.535 390.743 273.361 390.849L267.82 394.24C267.646 394.347 267.503 394.483 267.392 394.65C267.286 394.813 267.272 394.982 267.349 395.156ZM267.749 399.608L277.153 393.853L278.719 397.376L277.298 398.245L276.391 396.203L273.921 397.714L274.531 399.085L273.11 399.954L272.501 398.583L268.407 401.088L267.749 399.608ZM271.13 407.216L280.535 401.462L282.039 404.848L280.619 405.717L279.772 403.811L277.239 405.362L277.848 406.732L276.466 407.578L275.857 406.207L273.209 407.828L274.055 409.733L272.635 410.602L271.13 407.216ZM273.276 412.043L278.939 410.653L282.692 406.316L283.338 407.769L281.317 410.034L281.157 410.185L281.181 410.24L281.378 410.171L284.118 409.524L284.763 410.977L279.585 412.105L275.371 416.759L274.726 415.306L277.15 412.741L277.317 412.604L277.293 412.549L277.101 412.632L273.922 413.496L273.276 412.043ZM276.011 418.198L285.415 412.444L286.073 413.924C286.323 414.486 286.416 415.025 286.352 415.541C286.29 416.061 286.09 416.544 285.751 416.989C285.412 417.435 284.957 417.833 284.385 418.182C283.814 418.532 283.278 418.735 282.777 418.792C282.276 418.849 281.824 418.759 281.421 418.523C281.024 418.29 280.694 417.908 280.431 417.377L276.669 419.679L276.011 418.198ZM281.838 416.516C281.954 416.776 282.092 416.953 282.253 417.046C282.418 417.137 282.619 417.151 282.857 417.087C283.096 417.027 283.38 416.897 283.709 416.696C284.041 416.493 284.297 416.293 284.475 416.096C284.656 415.904 284.761 415.701 284.79 415.485C284.821 415.275 284.78 415.041 284.666 414.785L281.838 416.516ZM278.458 423.703L287.862 417.948L289.366 421.334L287.946 422.203L287.099 420.298L284.566 421.848L285.175 423.218L283.793 424.064L283.184 422.693L280.536 424.314L281.383 426.219L279.962 427.088L278.458 423.703ZM280.755 428.872L290.159 423.118L290.817 424.598C291.211 425.485 291.271 426.279 290.997 426.981C290.728 427.681 290.147 428.303 289.256 428.849C288.727 429.172 288.224 429.352 287.747 429.389C287.275 429.427 286.887 429.359 286.582 429.186L282.558 432.93L281.9 431.449L285.495 428.186L285.379 427.926L281.413 430.353L280.755 428.872ZM286.659 427.143C286.781 427.417 286.933 427.6 287.115 427.692C287.301 427.781 287.514 427.796 287.753 427.737C287.993 427.678 288.255 427.561 288.541 427.386C288.989 427.112 289.297 426.822 289.464 426.516C289.638 426.212 289.633 425.852 289.448 425.436L286.659 427.143ZM283.237 434.457L292.641 428.702L293.299 430.183L283.895 435.937L283.237 434.457ZM284.69 437.726L294.094 431.971L295.599 435.357L294.179 436.226L293.332 434.321L290.798 435.871L291.408 437.242L290.026 438.087L289.417 436.716L286.768 438.337L287.615 440.242L286.195 441.111L284.69 437.726ZM286.988 442.895L296.392 437.141L297.007 438.525L292.716 442.895L292.336 443.284L292.372 443.366L297.708 440.102L298.311 441.459L288.907 447.213L288.352 445.966L292.582 441.459L292.963 441.07L292.926 440.988L287.591 444.252L286.988 442.895ZM290.44 450.957C290.253 450.536 290.181 450.124 290.224 449.72C290.273 449.318 290.417 448.945 290.655 448.602C290.895 448.263 291.209 447.975 291.597 447.738L297.137 444.348C297.521 444.113 297.901 443.979 298.277 443.947C298.655 443.919 299 443.998 299.311 444.186C299.622 444.373 299.868 444.67 300.049 445.077C300.185 445.383 300.253 445.69 300.254 445.997C300.256 446.305 300.2 446.6 300.087 446.884C299.981 447.17 299.825 447.434 299.618 447.677C299.415 447.917 299.173 448.123 298.892 448.296L297.6 449.086L296.984 447.702L298.277 446.911C298.473 446.791 298.618 446.647 298.711 446.479C298.805 446.312 298.807 446.127 298.718 445.926C298.636 445.744 298.509 445.653 298.336 445.654C298.163 445.655 297.983 445.713 297.795 445.828L292.255 449.218C292.067 449.333 291.925 449.476 291.827 449.646C291.731 449.821 291.721 449.993 291.796 450.162C291.887 450.368 292.017 450.471 292.186 450.472C292.357 450.478 292.54 450.421 292.736 450.301L294.029 449.51L294.644 450.895L293.352 451.686C292.968 451.92 292.587 452.052 292.209 452.08C291.831 452.108 291.486 452.028 291.175 451.841C290.866 451.658 290.621 451.363 290.44 450.957ZM292.184 454.587L301.588 448.832L303.092 452.218L301.672 453.087L300.825 451.182L298.292 452.732L298.901 454.102L297.519 454.948L296.91 453.577L294.262 455.198L295.109 457.103L293.688 457.972L292.184 454.587ZM296.415 464.401C296.235 463.995 296.146 463.619 296.15 463.273C296.158 462.925 296.247 462.601 296.417 462.299C296.587 461.998 296.825 461.71 297.131 461.435C297.44 461.165 297.805 460.901 298.227 460.642L299.001 462.017C298.796 462.142 298.601 462.27 298.415 462.402C298.236 462.535 298.078 462.669 297.943 462.804C297.814 462.941 297.723 463.078 297.67 463.215C297.619 463.357 297.623 463.494 297.682 463.626C297.78 463.845 297.942 463.943 298.171 463.92C298.403 463.894 298.654 463.799 298.923 463.634C299.191 463.47 299.437 463.223 299.66 462.895C299.883 462.567 300.078 462.218 300.245 461.849C300.53 461.221 300.802 460.656 301.062 460.154C301.324 459.657 301.605 459.221 301.904 458.846C302.206 458.475 302.558 458.167 302.958 457.922C303.274 457.729 303.583 457.594 303.886 457.52C304.194 457.442 304.482 457.425 304.751 457.47C305.027 457.516 305.273 457.624 305.489 457.794C305.706 457.964 305.882 458.202 306.018 458.508C306.187 458.887 306.269 459.243 306.265 459.577C306.264 459.915 306.188 460.232 306.037 460.527C305.888 460.828 305.677 461.108 305.402 461.369C305.134 461.632 304.814 461.877 304.443 462.104L303.669 460.73C303.827 460.633 303.981 460.527 304.131 460.412C304.287 460.3 304.422 460.182 304.535 460.06C304.649 459.938 304.73 459.813 304.776 459.686C304.823 459.559 304.818 459.434 304.764 459.31C304.678 459.118 304.543 459.033 304.357 459.054C304.175 459.072 303.945 459.166 303.668 459.335C303.31 459.555 303.01 459.869 302.769 460.278C302.528 460.687 302.262 461.201 301.973 461.82C301.633 462.557 301.302 463.19 300.978 463.719C300.657 464.253 300.229 464.683 299.696 465.009C299.359 465.215 299.029 465.368 298.704 465.468C298.384 465.565 298.079 465.594 297.791 465.556C297.505 465.522 297.244 465.411 297.009 465.224C296.776 465.041 296.578 464.767 296.415 464.401ZM298.089 467.873L307.493 462.119L308.151 463.599C308.401 464.161 308.494 464.7 308.43 465.216C308.368 465.736 308.168 466.219 307.829 466.665C307.49 467.11 307.035 467.508 306.463 467.858C305.892 468.207 305.355 468.411 304.854 468.467C304.353 468.524 303.901 468.434 303.498 468.199C303.101 467.965 302.771 467.583 302.508 467.052L298.747 469.354L298.089 467.873ZM303.916 466.191C304.032 466.451 304.17 466.628 304.331 466.722C304.496 466.812 304.697 466.826 304.934 466.762C305.174 466.703 305.458 466.572 305.786 466.371C306.119 466.168 306.374 465.968 306.553 465.771C306.734 465.58 306.838 465.376 306.867 465.161C306.898 464.95 306.857 464.717 306.743 464.461L303.916 466.191ZM300.535 473.378L309.939 467.623L311.444 471.009L310.024 471.878L309.177 469.973L306.644 471.523L307.253 472.894L305.871 473.739L305.262 472.368L302.613 473.989L303.46 475.894L302.04 476.763L300.535 473.378ZM303.577 480.515C303.39 480.095 303.318 479.683 303.361 479.279C303.41 478.877 303.554 478.504 303.792 478.161C304.032 477.822 304.346 477.534 304.734 477.297L310.274 473.907C310.658 473.672 311.038 473.538 311.414 473.506C311.792 473.478 312.137 473.557 312.448 473.745C312.759 473.932 313.005 474.229 313.186 474.636C313.322 474.942 313.391 475.249 313.392 475.556C313.393 475.863 313.337 476.159 313.224 476.443C313.118 476.729 312.962 476.993 312.755 477.236C312.552 477.476 312.31 477.682 312.029 477.854L310.737 478.645L310.121 477.261L311.414 476.47C311.61 476.35 311.755 476.206 311.848 476.038C311.942 475.871 311.944 475.686 311.855 475.485C311.774 475.302 311.646 475.212 311.473 475.213C311.3 475.214 311.12 475.272 310.932 475.387L305.392 478.777C305.205 478.892 305.062 479.034 304.964 479.205C304.868 479.38 304.858 479.552 304.933 479.721C305.024 479.926 305.154 480.03 305.323 480.031C305.494 480.037 305.677 479.98 305.874 479.86L307.166 479.069L307.781 480.454L306.489 481.244C306.105 481.479 305.724 481.611 305.346 481.639C304.968 481.667 304.623 481.587 304.312 481.4C304.003 481.217 303.758 480.922 303.577 480.515ZM305.321 484.145L314.725 478.391L315.383 479.871L305.979 485.626L305.321 484.145ZM306.636 487.106L316.717 482.873L317.521 484.682L308.793 491.958L308.153 490.519L309.951 489.07L309.317 487.645L307.276 488.545L306.636 487.106ZM310.867 486.958L311.318 487.972L314.289 485.614L314.77 485.267L314.734 485.185L314.216 485.449L310.867 486.958ZM309.446 493.427L318.85 487.673L319.508 489.153L311.383 494.125L312.254 496.085L310.975 496.868L309.446 493.427ZM311.547 498.155L320.951 492.401L321.609 493.881L312.205 499.636L311.547 498.155ZM312.848 501.081L314.332 500.173L321.912 498.481L321.029 496.494L322.398 495.656L323.994 499.247L322.625 500.085L314.911 501.806L315.959 504.164L314.59 505.002L312.848 501.081ZM315.232 506.446L324.636 500.692L325.294 502.172L315.89 507.927L315.232 506.446ZM316.685 509.715L326.089 503.961L326.704 505.345L322.413 509.715L322.033 510.104L322.07 510.186L327.405 506.922L328.008 508.279L318.604 514.033L318.05 512.786L322.28 508.279L322.66 507.89L322.623 507.808L317.288 511.072L316.685 509.715ZM320.034 517.543C319.853 517.137 319.796 516.751 319.861 516.385C319.926 516.02 320.085 515.681 320.337 515.37C320.592 515.063 320.911 514.793 321.295 514.558L326.835 511.168C327.214 510.936 327.593 510.805 327.971 510.777C328.349 510.749 328.694 510.829 329.005 511.017C329.321 511.201 329.568 511.495 329.746 511.897C329.882 512.203 329.951 512.51 329.952 512.817C329.959 513.126 329.907 513.423 329.794 513.707C329.684 513.995 329.524 514.259 329.315 514.497C329.113 514.737 328.871 514.943 328.589 515.115L327.143 516L326.485 514.52L327.931 513.635C328.119 513.52 328.265 513.385 328.369 513.228C328.473 513.071 328.484 512.902 328.403 512.719C328.324 512.541 328.194 512.457 328.015 512.468C327.842 512.481 327.667 512.541 327.493 512.648L321.837 516.109C321.654 516.221 321.509 516.359 321.403 516.523C321.301 516.684 321.289 516.851 321.366 517.025C321.447 517.208 321.572 517.294 321.741 517.283C321.914 517.27 322.093 517.208 322.276 517.096L323.85 516.133L323.588 515.543L324.88 514.752L325.8 516.822L321.117 519.688L320.727 518.81L321.16 518.319C320.911 518.309 320.686 518.237 320.486 518.104C320.292 517.972 320.142 517.786 320.034 517.543ZM323.155 524.274L332.559 518.519L333.217 520L323.813 525.754L323.155 524.274ZM324.608 527.543L334.012 521.788L334.628 523.173L330.336 527.542L329.956 527.931L329.993 528.014L335.328 524.749L335.931 526.106L326.527 531.86L325.973 530.613L330.203 526.107L330.583 525.717L330.547 525.635L325.211 528.9L324.608 527.543ZM328.999 537.423L336.983 532.538L336.362 531.14L337.782 530.271L339.683 534.547L338.263 535.416L337.641 534.018L329.657 538.904L328.999 537.423ZM330.888 541.673L340.292 535.918L340.95 537.399L337.061 539.779L337.572 540.93L341.462 538.55L342.12 540.031L332.716 545.785L332.058 544.305L336.152 541.799L335.64 540.648L331.546 543.153L330.888 541.673ZM333.507 547.565L342.911 541.811L344.416 545.197L342.996 546.066L342.149 544.16L339.615 545.71L340.225 547.081L338.843 547.927L338.234 546.556L335.585 548.177L336.432 550.082L335.012 550.951L333.507 547.565ZM337.049 555.535L346.453 549.781L347.288 551.659L342.773 555.45L342.304 555.824L342.316 555.852L342.846 555.615L348.08 553.441L348.914 555.319L339.51 561.073L338.901 559.702L345.209 555.843L345.172 555.76L344.751 555.948L338.45 558.688L338.109 557.92L343.63 553.426L344.003 553.129L343.966 553.046L337.658 556.906L337.049 555.535ZM340.305 562.86L349.709 557.106L351.213 560.491L349.793 561.36L348.946 559.455L346.413 561.005L347.022 562.376L345.64 563.222L345.031 561.851L342.383 563.471L343.23 565.377L341.809 566.246L340.305 562.86ZM342.602 568.03L352.006 562.275L352.664 563.756C353.058 564.642 353.118 565.436 352.844 566.139C352.575 566.838 351.995 567.461 351.103 568.006C350.574 568.33 350.071 568.51 349.594 568.546C349.123 568.585 348.734 568.517 348.429 568.343L344.405 572.087L343.747 570.607L347.342 567.344L347.226 567.083L343.26 569.51L342.602 568.03ZM348.506 566.3C348.628 566.574 348.78 566.757 348.962 566.85C349.148 566.939 349.361 566.954 349.6 566.895C349.84 566.835 350.102 566.718 350.388 566.543C350.836 566.269 351.144 565.979 351.311 565.673C351.485 565.369 351.48 565.009 351.295 564.593L348.506 566.3ZM345.084 573.614L354.488 567.86L355.104 569.244L350.812 573.614L350.432 574.003L350.469 574.085L355.804 570.821L356.407 572.178L347.003 577.932L346.449 576.685L350.679 572.178L351.059 571.789L351.023 571.707L345.687 574.971L345.084 573.614ZM349.726 584.353C349.546 583.946 349.457 583.57 349.461 583.225C349.469 582.877 349.558 582.552 349.728 582.251C349.898 581.949 350.136 581.661 350.442 581.386C350.751 581.116 351.116 580.852 351.539 580.594L352.312 581.968C352.108 582.094 351.912 582.222 351.726 582.353C351.547 582.486 351.39 582.62 351.254 582.755C351.125 582.892 351.034 583.029 350.981 583.166C350.93 583.308 350.934 583.445 350.993 583.577C351.091 583.797 351.253 583.895 351.482 583.871C351.714 583.845 351.965 583.75 352.234 583.586C352.502 583.421 352.748 583.175 352.971 582.847C353.194 582.518 353.389 582.17 353.556 581.8C353.841 581.172 354.113 580.608 354.373 580.106C354.635 579.608 354.916 579.172 355.215 578.797C355.517 578.426 355.869 578.118 356.27 577.873C356.585 577.68 356.894 577.546 357.197 577.471C357.505 577.393 357.793 577.377 358.062 577.421C358.338 577.468 358.584 577.576 358.8 577.745C359.017 577.915 359.193 578.153 359.329 578.459C359.498 578.838 359.58 579.195 359.577 579.528C359.575 579.866 359.499 580.183 359.348 580.479C359.199 580.779 358.988 581.06 358.713 581.321C358.445 581.584 358.125 581.829 357.754 582.056L356.98 580.681C357.138 580.584 357.292 580.479 357.442 580.364C357.598 580.251 357.733 580.134 357.847 580.012C357.96 579.889 358.041 579.765 358.087 579.638C358.134 579.51 358.13 579.385 358.075 579.262C357.989 579.07 357.854 578.984 357.668 579.005C357.486 579.023 357.256 579.117 356.979 579.287C356.621 579.506 356.321 579.82 356.08 580.229C355.839 580.639 355.573 581.153 355.284 581.771C354.944 582.508 354.613 583.141 354.289 583.67C353.968 584.204 353.54 584.634 353.007 584.96C352.67 585.166 352.34 585.319 352.015 585.419C351.695 585.516 351.391 585.546 351.102 585.507C350.816 585.473 350.555 585.362 350.32 585.175C350.087 584.992 349.889 584.718 349.726 584.353ZM351.839 588.812L359.822 583.926L359.201 582.528L360.621 581.659L362.522 585.936L361.102 586.805L360.48 585.407L352.496 590.292L351.839 588.812ZM353.287 592.07L363.367 587.837L364.171 589.647L355.443 596.923L354.804 595.483L356.601 594.035L355.967 592.609L353.926 593.51L353.287 592.07ZM357.517 591.922L357.968 592.937L360.94 590.578L361.42 590.232L361.384 590.149L360.867 590.414L357.517 591.922ZM356.841 600.36C356.654 599.939 356.582 599.527 356.625 599.123C356.674 598.721 356.817 598.349 357.056 598.005C357.296 597.667 357.61 597.378 357.998 597.141L363.538 593.751C363.922 593.516 364.302 593.382 364.678 593.35C365.056 593.322 365.401 593.402 365.712 593.589C366.023 593.776 366.269 594.073 366.449 594.48C366.586 594.786 366.654 595.093 366.655 595.4C366.656 595.708 366.6 596.003 366.488 596.287C366.382 596.573 366.225 596.837 366.018 597.08C365.816 597.32 365.574 597.526 365.292 597.699L364 598.489L363.385 597.105L364.677 596.314C364.873 596.194 365.018 596.05 365.112 595.883C365.205 595.715 365.208 595.531 365.118 595.329C365.037 595.147 364.91 595.056 364.737 595.057C364.564 595.058 364.383 595.117 364.196 595.231L358.656 598.621C358.468 598.736 358.325 598.879 358.227 599.049C358.132 599.224 358.121 599.396 358.196 599.565C358.288 599.771 358.418 599.874 358.587 599.875C358.757 599.881 358.941 599.824 359.137 599.704L360.429 598.914L361.045 600.298L359.752 601.089C359.368 601.324 358.987 601.455 358.609 601.483C358.231 601.511 357.887 601.431 357.575 601.244C357.266 601.061 357.021 600.766 356.841 600.36ZM358.584 603.99L367.988 598.235L368.646 599.716L365.512 601.634L365.358 601.728L365.382 601.783L365.566 601.757L369.213 600.99L369.889 602.512L366.19 603.05L360.564 608.445L359.888 606.923L363.735 603.313L363.717 603.272L362.569 603.435L359.242 605.47L358.584 603.99Z" fill="#D9D9D9"/>
<g clip-path="url(#clip3_14_21)">
<path d="M87.2003 249.331C88.0841 248.945 88.9343 248.904 89.7506 249.207C90.567 249.511 91.1687 250.106 91.5558 250.993C91.9359 251.864 91.9606 252.692 91.63 253.477C91.2885 254.286 90.6494 254.895 89.7126 255.304C88.8641 255.674 88.0395 255.714 87.2389 255.422C86.4137 255.122 85.8041 254.521 85.4101 253.619L85.3997 253.595C85.0196 252.724 85.0037 251.892 85.3521 251.099C85.7004 250.306 86.3165 249.717 87.2003 249.331ZM64.1346 259.765L81.8465 252.035L84.148 257.308L66.4361 265.039L64.1346 259.765ZM67.7113 267.96L70.0128 273.234L79.9028 268.917C80.5215 268.647 81.0265 268.502 81.4176 268.482C82.1154 268.442 82.7704 268.557 83.3828 268.827C83.9952 269.097 84.4499 269.572 84.7471 270.253C85.5212 272.027 84.5737 273.496 81.9045 274.661L72.4388 278.792L74.7403 284.066L84.8954 279.633C87.5116 278.492 89.2539 277.071 90.1223 275.373C90.9908 273.674 91.0276 271.914 90.2328 270.093C89.3412 268.05 87.6655 266.887 85.2058 266.603L85.1528 266.626L85.1424 266.602L85.2058 266.603L87.7247 265.504L85.4232 260.23C84.8714 260.509 83.1195 261.292 80.1675 262.581C77.2155 263.869 73.0635 265.662 67.7113 267.96Z" fill="white"/>
</g>
<g clip-path="url(#clip4_14_21)">
<path d="M217.059 558.074C215.293 553.322 211.819 551.233 206.638 551.806C209.67 552.707 211.331 554.456 211.622 557.052C211.788 558.534 211.167 559.867 210.48 561.343C209.36 563.748 208.064 566.531 209.705 570.947C211.471 575.699 214.945 577.789 220.126 577.216C217.094 576.314 215.433 574.565 215.142 571.969C214.977 570.488 215.597 569.154 216.285 567.678C217.404 565.274 218.7 562.491 217.059 558.074ZM203.083 553.127C201.317 548.375 197.844 546.285 192.662 546.859C195.694 547.76 197.356 549.509 197.646 552.105C197.812 553.586 197.191 554.92 196.504 556.396C195.384 558.801 194.088 561.583 195.73 566C197.496 570.752 200.969 572.842 206.151 572.268C203.119 571.367 201.457 569.618 201.167 567.022C201.001 565.541 201.622 564.207 202.309 562.731C203.429 560.327 204.724 557.544 203.083 553.127Z" fill="white"/>
</g>
<g clip-path="url(#clip5_14_21)">
<path d="M245.526 627.424L249.741 636.619L248.926 636.993L245.097 628.641L238.964 631.452L242.565 639.306L241.75 639.68L238.15 631.826L231.416 634.912L235.289 643.36L234.474 643.734L230.215 634.443L245.526 627.424ZM250.119 637.443L250.566 638.42L245.818 645.836L254.58 647.174L265.892 649.272L245.365 646.716L239.831 655.419L239.366 654.404L244.403 646.485L235.107 645.113L234.65 644.117L244.873 645.643L250.119 637.443ZM254.494 649.138L255.309 648.764L260.112 659.243L259.297 659.616L257.084 654.789L242.589 661.434L242.202 660.591L256.698 653.946L254.494 649.138ZM240.252 615.921L240.735 616.974L223.156 642.615L229.332 632.518L239.498 617.333L225.328 623.783L224.942 622.94L240.252 615.921ZM245.824 665.69C245.745 665.518 245.834 665.321 246.026 665.233C246.219 665.145 246.427 665.206 246.506 665.378C246.585 665.552 246.495 665.747 246.303 665.835C246.11 665.924 245.903 665.865 245.824 665.69ZM247.1 666.107L247.307 666.558C247.038 666.689 246.936 666.952 247.057 667.214C247.191 667.507 247.464 667.583 247.832 667.414L250.167 666.344L250.377 666.803L248.041 667.874C247.377 668.179 246.837 668.01 246.576 667.44C246.33 666.905 246.533 666.368 247.1 666.107ZM248.238 668.511L248.447 668.966C248.151 669.149 248.078 669.515 248.259 669.91C248.429 670.279 248.765 670.452 249.058 670.318C249.31 670.203 249.382 669.961 249.306 669.522L249.234 669.094C249.128 668.495 249.305 668.119 249.79 667.896C250.378 667.627 250.967 667.878 251.263 668.523C251.538 669.124 251.348 669.742 250.804 670.024L250.599 669.577C250.884 669.394 250.965 669.069 250.807 668.725C250.641 668.362 250.335 668.209 250.038 668.346C249.802 668.454 249.738 668.672 249.814 669.103L249.874 669.47C249.995 670.149 249.835 670.525 249.338 670.753C248.706 671.043 248.109 670.785 247.788 670.084C247.487 669.428 247.663 668.814 248.238 668.511Z" fill="white"/>
</g>
<g clip-path="url(#clip6_14_21)">
<path d="M79.2092 217.177C75.5768 208.796 65.839 204.944 57.4599 208.575C50.7568 211.481 46.9547 218.294 47.5622 225.194C47.7505 226.013 48.3407 226.088 48.7414 225.914C49.1032 225.758 50.2922 225.226 51.5571 224.67C48.8094 220.845 51.131 218.781 51.131 218.781C52.5854 217.33 52.6206 216.133 52.6206 216.133C52.9654 214.348 53.5878 215.837 53.5878 215.837C54.1413 217.408 53.0327 218.842 53.0327 218.842C51.3 221.2 52.9227 223.107 53.6857 223.805C54.7253 223.516 55.5651 223.619 56.132 223.889C55.0546 220.352 54.8196 216.244 60.6329 213.725C62.2893 213.007 63.8996 213.013 65.3829 213.524C65.6967 213.2 67.0146 212.012 69.4615 211.93C69.4615 211.93 70.4216 213.028 69.7158 216.779C70.5766 217.844 71.3079 219.07 71.8727 220.357C72.4259 221.649 72.8205 223.022 73.01 224.38C76.2284 226.426 76.3723 227.876 76.3723 227.876C74.6406 229.608 72.8722 229.757 72.4218 229.765C71.7811 231.198 70.6829 232.374 69.0266 233.092C63.1995 235.617 60.3777 232.623 58.5373 229.406C58.3024 230.154 57.5894 231.039 56.174 231.653C54.144 232.533 52.5026 233.223 52.0029 233.44C51.5992 233.615 51.2445 234.093 51.7269 234.798C56.3474 239.954 63.9147 241.834 70.6155 238.929C78.9946 235.298 82.8419 225.559 79.2092 217.177ZM53.483 217.051C53.3931 217.05 53.3191 216.941 53.324 216.811C53.3258 216.679 53.4017 216.573 53.4928 216.576C53.5846 216.575 53.6578 216.685 53.6533 216.817C53.6517 216.949 53.5751 217.057 53.483 217.051ZM53.1406 218.086C53.0422 218.043 53.012 217.888 53.0764 217.746C53.1392 217.601 53.2726 217.521 53.3724 217.565C53.4719 217.61 53.4999 217.761 53.4373 217.907C53.3733 218.052 53.2413 218.132 53.1406 218.086ZM52.5106 218.968C52.4058 218.903 52.4004 218.724 52.4946 218.572C52.5892 218.42 52.751 218.35 52.857 218.417C52.9627 218.483 52.9693 218.658 52.8767 218.812C52.7797 218.964 52.6179 219.034 52.5106 218.968ZM51.8993 220.261C51.7716 220.218 51.7194 220.03 51.7883 219.846C51.8532 219.661 52.0108 219.548 52.1386 219.592C52.2671 219.636 52.3184 219.826 52.2509 220.01C52.1859 220.195 52.0285 220.311 51.8993 220.261ZM52.0514 221.525C51.9167 221.54 51.7887 221.393 51.7647 221.199C51.7423 221.005 51.8328 220.832 51.9679 220.815C52.103 220.799 52.2335 220.946 52.2546 221.142C52.2771 221.336 52.1877 221.509 52.0514 221.525ZM52.4623 222.86C52.339 222.919 52.1721 222.818 52.0916 222.639C52.0089 222.459 52.0466 222.268 52.1688 222.213C52.2952 222.158 52.4597 222.256 52.5413 222.436C52.6231 222.615 52.5866 222.807 52.4623 222.86ZM53.0527 224.091C52.9399 224.166 52.7602 224.095 52.6491 223.93C52.5406 223.768 52.5453 223.572 52.6567 223.497C52.7723 223.421 52.953 223.494 53.0617 223.656C53.1706 223.822 53.1668 224.015 53.0527 224.091Z" fill="white"/>
</g>
<defs>
<filter id="filter0_b_14_21" x="-253.865" y="-252.488" width="1052.84" height="1229.03" filterUnits="userSpaceOnUse" color-interpolation-filters="sRGB">
<feFlood flood-opacity="0" result="BackgroundImageFix"/>
<feGaussianBlur in="BackgroundImageFix" stdDeviation="130.065"/>
<feComposite in2="SourceAlpha" operator="in" result="effect1_backgroundBlur_14_21"/>
<feBlend mode="normal" in="SourceGraphic" in2="effect1_backgroundBlur_14_21" result="shape"/>
</filter>
<filter id="filter1_b_14_21" x="272.449" y="60.4938" width="49.5413" height="54.0469" filterUnits="userSpaceOnUse" color-interpolation-filters="sRGB">
<feFlood flood-opacity="0" result="BackgroundImageFix"/>
<feGaussianBlur in="BackgroundImageFix" stdDeviation="2.49262"/>
<feComposite in2="SourceAlpha" operator="in" result="effect1_backgroundBlur_14_21"/>
<feBlend mode="normal" in="SourceGraphic" in2="effect1_backgroundBlur_14_21" result="shape"/>
</filter>
<clipPath id="clip0_14_21">
<rect width="61.8169" height="51.8464" fill="white" transform="matrix(0.406134 0.913813 -0.85298 0.521944 482.925 442.076)"/>
</clipPath>
<clipPath id="clip1_14_21">
<rect width="125.595" height="112.57" fill="white" transform="translate(226.028 103.537) rotate(66.0377)"/>
</clipPath>
<clipPath id="clip2_14_21">
<rect width="27" height="24" fill="white" transform="translate(225.831 582) rotate(65.4525)"/>
</clipPath>
<clipPath id="clip3_14_21">
<rect width="26.8508" height="28.6408" fill="white" transform="translate(90.2497 248) rotate(66.4215)"/>
</clipPath>
<clipPath id="clip4_14_21">
<rect width="38.0222" height="22.8133" fill="white" transform="translate(208.68 540) rotate(65.0229)"/>
</clipPath>
<clipPath id="clip5_14_21">
<rect width="53.6304" height="36.0878" fill="white" transform="translate(248.805 612) rotate(65.3717)"/>
</clipPath>
<clipPath id="clip6_14_21">
<rect width="33.0823" height="32.2947" fill="white" transform="translate(72.6313 202) rotate(66.5678)"/>
</clipPath>
</defs>
</svg>
