<svg xmlns="http://www.w3.org/2000/svg" xmlns:xlink="http://www.w3.org/1999/xlink" width="209" zoomAndPan="magnify" viewBox="0 0 156.75 45.749998" height="61" preserveAspectRatio="xMidYMid meet" version="1.0"><defs><clipPath id="86ad5406bc"><path d="M 138.804688 11.253906 L 155.78125 11.253906 L 155.78125 30 L 138.804688 30 Z M 138.804688 11.253906 " clip-rule="nonzero"/></clipPath><clipPath id="887b04791e"><path d="M 4 10.429688 L 15 10.429688 L 15 30.65625 L 4 30.65625 Z M 4 10.429688 " clip-rule="nonzero"/></clipPath><clipPath id="4810d941c3"><path d="M 111.140625 12.078125 L 129.921875 12.078125 L 129.921875 29 L 111.140625 29 Z M 111.140625 12.078125 " clip-rule="nonzero"/></clipPath></defs><g clip-path="url(#86ad5406bc)"><path fill="#8cc84b" d="M 146.511719 11.503906 C 146.976562 11.238281 147.570312 11.238281 148.027344 11.503906 L 154.988281 15.445312 C 155.421875 15.6875 155.714844 16.175781 155.710938 16.679688 L 155.710938 24.578125 C 155.714844 25.101562 155.394531 25.601562 154.933594 25.84375 L 148.007812 29.761719 C 147.769531 29.898438 147.511719 29.960938 147.234375 29.953125 C 146.960938 29.945312 146.703125 29.867188 146.472656 29.722656 L 144.394531 28.515625 C 144.25 28.429688 144.09375 28.363281 143.992188 28.226562 C 144.082031 28.105469 144.238281 28.089844 144.367188 28.039062 C 144.65625 27.945312 144.921875 27.804688 145.1875 27.65625 C 145.253906 27.609375 145.335938 27.625 145.398438 27.667969 L 147.171875 28.695312 C 147.296875 28.769531 147.425781 28.671875 147.535156 28.613281 L 154.332031 24.761719 C 154.417969 24.71875 154.464844 24.628906 154.457031 24.539062 L 154.457031 16.714844 C 154.464844 16.609375 154.40625 16.515625 154.3125 16.472656 L 147.40625 12.566406 C 147.3125 12.503906 147.222656 12.503906 147.132812 12.566406 L 140.234375 16.480469 C 140.144531 16.523438 140.078125 16.617188 140.089844 16.722656 L 140.089844 24.542969 C 140.082031 24.636719 140.132812 24.722656 140.214844 24.761719 L 142.058594 25.808594 C 142.40625 25.996094 142.828125 26.101562 143.210938 25.964844 C 143.382812 25.898438 143.519531 25.789062 143.621094 25.640625 C 143.726562 25.488281 143.777344 25.320312 143.777344 25.136719 L 143.777344 17.363281 C 143.769531 17.246094 143.878906 17.152344 143.992188 17.164062 L 144.875 17.164062 C 144.992188 17.160156 145.085938 17.285156 145.070312 17.402344 L 145.066406 25.226562 C 145.066406 25.921875 144.785156 26.675781 144.144531 27.019531 C 143.351562 27.425781 142.378906 27.339844 141.597656 26.949219 L 139.617188 25.847656 C 139.148438 25.613281 138.835938 25.109375 138.839844 24.582031 L 138.839844 16.683594 C 138.839844 16.425781 138.910156 16.179688 139.042969 15.957031 C 139.175781 15.734375 139.359375 15.558594 139.585938 15.433594 Z M 148.519531 16.980469 C 149.523438 16.921875 150.601562 16.941406 151.507812 17.4375 C 152.210938 17.820312 152.597656 18.621094 152.609375 19.402344 C 152.589844 19.507812 152.480469 19.566406 152.382812 19.558594 C 152.089844 19.558594 151.796875 19.5625 151.503906 19.558594 C 151.378906 19.5625 151.308594 19.449219 151.292969 19.335938 C 151.207031 18.964844 151.003906 18.59375 150.65625 18.410156 C 150.117188 18.140625 149.492188 18.15625 148.902344 18.160156 C 148.472656 18.183594 148.011719 18.21875 147.648438 18.472656 C 147.371094 18.664062 147.285156 19.058594 147.386719 19.363281 C 147.480469 19.589844 147.738281 19.660156 147.949219 19.726562 C 149.160156 20.046875 150.445312 20.019531 151.636719 20.433594 C 152.128906 20.605469 152.613281 20.9375 152.78125 21.453125 C 153 22.148438 152.90625 22.976562 152.414062 23.535156 C 152.015625 23.992188 151.433594 24.238281 150.855469 24.378906 C 150.082031 24.550781 149.285156 24.554688 148.5 24.476562 C 147.765625 24.394531 147 24.199219 146.429688 23.695312 C 145.945312 23.273438 145.707031 22.613281 145.730469 21.976562 C 145.738281 21.867188 145.84375 21.792969 145.945312 21.800781 L 146.820312 21.800781 C 146.9375 21.792969 147.027344 21.894531 147.03125 22.007812 C 147.085938 22.359375 147.21875 22.738281 147.527344 22.941406 C 148.128906 23.332031 148.878906 23.304688 149.5625 23.3125 C 150.128906 23.289062 150.765625 23.28125 151.230469 22.90625 C 151.472656 22.691406 151.546875 22.332031 151.480469 22.023438 C 151.40625 21.761719 151.128906 21.640625 150.894531 21.554688 C 149.699219 21.175781 148.398438 21.3125 147.210938 20.882812 C 146.730469 20.710938 146.265625 20.386719 146.082031 19.890625 C 145.824219 19.1875 145.941406 18.320312 146.484375 17.78125 C 147.007812 17.246094 147.777344 17.039062 148.507812 16.964844 Z M 148.519531 16.980469 " fill-opacity="1" fill-rule="nonzero"/></g><g clip-path="url(#887b04791e)"><path fill="#01ec64" d="M 11.082031 12.71875 C 10.234375 11.714844 9.503906 10.695312 9.355469 10.484375 C 9.351562 10.480469 9.347656 10.476562 9.34375 10.476562 C 9.335938 10.472656 9.332031 10.472656 9.328125 10.472656 C 9.320312 10.472656 9.316406 10.472656 9.3125 10.476562 C 9.308594 10.476562 9.304688 10.480469 9.300781 10.484375 C 9.152344 10.695312 8.421875 11.714844 7.574219 12.71875 C 0.300781 21.976562 8.71875 28.222656 8.71875 28.222656 L 8.789062 28.269531 C 8.851562 29.234375 9.007812 30.621094 9.007812 30.621094 L 9.636719 30.621094 C 9.636719 30.621094 9.792969 29.242188 9.855469 28.269531 L 9.925781 28.214844 C 9.933594 28.222656 18.351562 21.976562 11.082031 12.71875 Z M 9.324219 28.082031 C 9.324219 28.082031 8.945312 27.761719 8.84375 27.597656 L 8.84375 27.582031 L 9.300781 17.5 C 9.300781 17.46875 9.347656 17.46875 9.347656 17.5 L 9.800781 27.582031 L 9.800781 27.597656 C 9.699219 27.761719 9.324219 28.082031 9.324219 28.082031 Z M 9.324219 28.082031 " fill-opacity="1" fill-rule="nonzero"/></g><path fill="#53c1de" d="M 122.210938 20.523438 C 122.210938 20.746094 122.171875 20.957031 122.085938 21.160156 C 122 21.363281 121.878906 21.542969 121.71875 21.699219 C 121.5625 21.851562 121.382812 21.972656 121.175781 22.054688 C 120.96875 22.140625 120.753906 22.183594 120.53125 22.183594 C 120.308594 22.183594 120.09375 22.140625 119.890625 22.054688 C 119.683594 21.972656 119.503906 21.851562 119.34375 21.699219 C 119.1875 21.542969 119.066406 21.363281 118.980469 21.160156 C 118.894531 20.957031 118.851562 20.746094 118.851562 20.523438 C 118.851562 20.304688 118.894531 20.09375 118.980469 19.890625 C 119.066406 19.6875 119.1875 19.507812 119.34375 19.351562 C 119.503906 19.199219 119.683594 19.078125 119.890625 18.992188 C 120.09375 18.910156 120.308594 18.867188 120.53125 18.867188 C 120.753906 18.867188 120.96875 18.910156 121.175781 18.992188 C 121.382812 19.078125 121.5625 19.199219 121.71875 19.351562 C 121.878906 19.507812 122 19.6875 122.085938 19.890625 C 122.171875 20.09375 122.210938 20.304688 122.210938 20.523438 Z M 122.210938 20.523438 " fill-opacity="1" fill-rule="nonzero"/><g clip-path="url(#4810d941c3)"><path fill="#53c1de" d="M 114.675781 23.460938 C 114.839844 23.515625 115.003906 23.570312 115.175781 23.617188 C 115.117188 23.832031 115.070312 24.046875 115.027344 24.269531 C 114.640625 26.277344 114.941406 27.867188 115.902344 28.414062 C 116.894531 28.980469 118.558594 28.398438 120.179688 27 C 120.308594 26.886719 120.4375 26.773438 120.566406 26.648438 C 120.726562 26.804688 120.894531 26.953125 121.0625 27.097656 C 122.632812 28.429688 124.183594 28.96875 125.144531 28.421875 C 126.132812 27.859375 126.457031 26.144531 126.039062 24.0625 C 126.003906 23.902344 125.96875 23.738281 125.929688 23.574219 C 126.046875 23.539062 126.160156 23.503906 126.273438 23.46875 C 128.390625 22.777344 129.921875 21.660156 129.921875 20.511719 C 129.921875 19.414062 128.476562 18.351562 126.480469 17.675781 L 126.480469 17.671875 C 126.285156 17.609375 126.085938 17.546875 125.886719 17.488281 C 125.921875 17.355469 125.949219 17.222656 125.980469 17.085938 C 126.429688 14.929688 126.132812 13.199219 125.132812 12.625 C 124.167969 12.078125 122.59375 12.648438 121.003906 14.015625 C 120.84375 14.148438 120.691406 14.289062 120.542969 14.433594 C 120.445312 14.339844 120.339844 14.242188 120.238281 14.152344 C 118.570312 12.691406 116.898438 12.078125 115.894531 12.652344 C 114.933594 13.203125 114.648438 14.835938 115.050781 16.875 C 115.09375 17.078125 115.136719 17.273438 115.1875 17.476562 C 114.953125 17.542969 114.722656 17.617188 114.503906 17.691406 C 112.546875 18.363281 111.140625 19.417969 111.140625 20.511719 C 111.140625 21.640625 112.636719 22.773438 114.675781 23.460938 Z M 119.664062 26.410156 C 119.058594 26.957031 118.355469 27.390625 117.59375 27.6875 C 117.1875 27.878906 116.71875 27.894531 116.300781 27.734375 C 115.714844 27.402344 115.472656 26.121094 115.804688 24.402344 C 115.84375 24.203125 115.886719 24 115.9375 23.800781 C 116.761719 23.972656 117.589844 24.09375 118.429688 24.152344 C 118.914062 24.832031 119.445312 25.476562 120.015625 26.085938 C 119.898438 26.199219 119.78125 26.304688 119.664062 26.40625 Z M 124.320312 19.613281 C 124.148438 19.292969 123.972656 18.976562 123.789062 18.664062 C 123.609375 18.359375 123.421875 18.054688 123.226562 17.753906 C 123.820312 17.828125 124.382812 17.925781 124.914062 18.042969 C 124.742188 18.578125 124.546875 19.101562 124.320312 19.613281 Z M 124.328125 21.414062 C 124.5625 21.941406 124.769531 22.472656 124.949219 23.019531 C 124.378906 23.144531 123.804688 23.242188 123.222656 23.308594 C 123.421875 23.003906 123.609375 22.691406 123.792969 22.382812 C 123.980469 22.0625 124.15625 21.742188 124.328125 21.414062 Z M 123.90625 20.515625 C 123.660156 21.015625 123.394531 21.507812 123.113281 21.992188 C 122.835938 22.472656 122.535156 22.9375 122.226562 23.402344 C 121.679688 23.441406 121.109375 23.460938 120.535156 23.460938 C 119.957031 23.460938 119.402344 23.441406 118.863281 23.410156 C 118.542969 22.949219 118.242188 22.480469 117.960938 22 C 117.675781 21.515625 117.417969 21.027344 117.171875 20.527344 L 117.167969 20.527344 C 117.410156 20.03125 117.675781 19.542969 117.953125 19.058594 C 118.234375 18.578125 118.535156 18.113281 118.847656 17.652344 C 119.398438 17.613281 119.960938 17.589844 120.535156 17.589844 C 121.105469 17.589844 121.671875 17.613281 122.21875 17.652344 C 122.527344 18.109375 122.828125 18.574219 123.109375 19.054688 C 123.390625 19.53125 123.65625 20.019531 123.90625 20.515625 Z M 117.269531 18.671875 C 117.089844 18.980469 116.914062 19.292969 116.75 19.613281 C 116.519531 19.074219 116.324219 18.546875 116.164062 18.035156 C 116.691406 17.921875 117.253906 17.824219 117.835938 17.753906 C 117.640625 18.054688 117.449219 18.359375 117.269531 18.671875 Z M 116.75 21.445312 C 116.917969 21.761719 117.09375 22.078125 117.273438 22.390625 C 117.460938 22.703125 117.652344 23.019531 117.855469 23.324219 C 117.28125 23.265625 116.714844 23.175781 116.152344 23.054688 C 116.3125 22.535156 116.515625 21.996094 116.75 21.445312 Z M 120.5625 25.527344 C 120.1875 25.132812 119.8125 24.691406 119.453125 24.214844 C 119.804688 24.230469 120.167969 24.238281 120.535156 24.238281 C 120.910156 24.238281 121.28125 24.230469 121.648438 24.210938 C 121.3125 24.671875 120.949219 25.109375 120.5625 25.527344 Z M 125.355469 26.617188 C 125.324219 27.054688 125.101562 27.46875 124.75 27.746094 C 124.167969 28.078125 122.925781 27.644531 121.582031 26.507812 C 121.429688 26.378906 121.273438 26.238281 121.117188 26.09375 C 121.675781 25.480469 122.195312 24.835938 122.664062 24.15625 C 123.503906 24.085938 124.339844 23.960938 125.164062 23.773438 C 125.203125 23.921875 125.234375 24.070312 125.265625 24.214844 C 125.445312 25 125.472656 25.8125 125.355469 26.617188 Z M 125.675781 18.234375 C 125.867188 18.289062 126.050781 18.347656 126.226562 18.40625 C 127.933594 18.984375 129.132812 19.84375 129.132812 20.503906 C 129.132812 21.214844 127.855469 22.128906 126.023438 22.726562 C 125.921875 22.757812 125.820312 22.789062 125.710938 22.820312 C 125.457031 22.03125 125.140625 21.261719 124.777344 20.511719 C 125.128906 19.773438 125.425781 19.011719 125.675781 18.234375 Z M 121.519531 14.601562 C 122.882812 13.429688 124.15625 12.972656 124.738281 13.300781 C 125.355469 13.652344 125.59375 15.070312 125.207031 16.933594 C 125.179688 17.054688 125.152344 17.175781 125.121094 17.292969 C 124.308594 17.113281 123.480469 16.984375 122.652344 16.910156 C 122.175781 16.238281 121.65625 15.59375 121.089844 14.988281 C 121.234375 14.855469 121.371094 14.730469 121.519531 14.601562 Z M 120.539062 15.542969 C 120.925781 15.957031 121.289062 16.390625 121.625 16.835938 C 120.898438 16.804688 120.167969 16.804688 119.445312 16.835938 C 119.800781 16.371094 120.171875 15.9375 120.539062 15.542969 Z M 116.285156 13.324219 C 116.902344 12.972656 118.269531 13.476562 119.710938 14.738281 C 119.800781 14.816406 119.894531 14.902344 119.988281 14.988281 C 119.421875 15.59375 118.894531 16.238281 118.414062 16.910156 C 117.585938 16.984375 116.765625 17.109375 115.949219 17.285156 C 115.902344 17.101562 115.863281 16.914062 115.824219 16.726562 C 115.476562 14.972656 115.707031 13.652344 116.285156 13.324219 Z M 114.761719 18.425781 C 114.972656 18.355469 115.183594 18.289062 115.398438 18.226562 C 115.648438 19.011719 115.949219 19.785156 116.296875 20.527344 C 115.945312 21.285156 115.640625 22.066406 115.386719 22.863281 C 115.230469 22.820312 115.082031 22.773438 114.929688 22.722656 C 114.148438 22.480469 113.261719 22.09375 112.621094 21.59375 C 112.25 21.339844 112 20.949219 111.929688 20.511719 C 111.929688 19.847656 113.089844 19 114.761719 18.425781 Z M 114.761719 18.425781 " fill-opacity="1" fill-rule="nonzero"/></g><path fill="#ffffff" d="M 49.691406 31.574219 L 49.691406 14.148438 L 50.636719 14.148438 L 50.636719 16.886719 C 50.75 16.765625 50.851562 16.636719 50.945312 16.503906 C 51.140625 16.101562 51.386719 15.734375 51.683594 15.402344 C 51.980469 15.070312 52.320312 14.789062 52.699219 14.554688 C 53.074219 14.320312 53.480469 14.140625 53.910156 14.023438 C 54.335938 13.902344 54.773438 13.847656 55.21875 13.851562 C 57.375 13.785156 59.125 14.585938 60.15625 16.503906 C 60.820312 17.710938 61.171875 19.003906 61.207031 20.382812 C 61.242188 21.761719 60.960938 23.074219 60.363281 24.316406 C 59.402344 26.464844 57.035156 27.53125 54.5 27.140625 C 53.699219 27.070312 52.960938 26.816406 52.289062 26.371094 C 51.617188 25.929688 51.09375 25.351562 50.714844 24.644531 L 50.714844 31.574219 Z M 50.636719 20.3125 C 50.722656 21.160156 50.753906 21.765625 50.851562 22.359375 C 51.222656 24.6875 52.601562 26.070312 54.761719 26.324219 C 55.269531 26.40625 55.777344 26.402344 56.285156 26.308594 C 56.789062 26.214844 57.265625 26.042969 57.710938 25.785156 C 58.15625 25.527344 58.542969 25.199219 58.878906 24.808594 C 59.210938 24.417969 59.464844 23.980469 59.648438 23.496094 C 60.066406 22.496094 60.261719 21.449219 60.234375 20.363281 C 60.203125 19.277344 59.953125 18.246094 59.480469 17.269531 C 59.285156 16.835938 59.03125 16.445312 58.710938 16.097656 C 58.390625 15.75 58.023438 15.460938 57.609375 15.234375 C 57.195312 15.003906 56.757812 14.847656 56.292969 14.761719 C 55.828125 14.675781 55.359375 14.664062 54.890625 14.730469 C 54.453125 14.765625 54.027344 14.863281 53.617188 15.027344 C 53.210938 15.191406 52.835938 15.414062 52.496094 15.695312 C 52.15625 15.972656 51.867188 16.300781 51.628906 16.671875 C 51.390625 17.042969 51.214844 17.441406 51.101562 17.867188 C 50.898438 18.671875 50.746094 19.488281 50.636719 20.3125 Z M 50.636719 20.3125 " fill-opacity="1" fill-rule="nonzero"/><path fill="#ffffff" d="M 80.503906 22.679688 C 80.433594 23.292969 80.253906 23.875 79.972656 24.421875 C 79.6875 24.972656 79.320312 25.453125 78.859375 25.867188 C 78.402344 26.28125 77.886719 26.601562 77.3125 26.832031 C 76.738281 27.058594 76.140625 27.175781 75.523438 27.183594 C 71.558594 27.382812 69.699219 24.753906 69.402344 21.714844 C 69.195312 20.03125 69.449219 18.421875 70.175781 16.886719 C 70.421875 16.371094 70.742188 15.910156 71.140625 15.496094 C 71.535156 15.082031 71.984375 14.738281 72.488281 14.46875 C 72.992188 14.199219 73.523438 14.015625 74.085938 13.914062 C 74.648438 13.8125 75.214844 13.804688 75.78125 13.882812 C 76.320312 13.929688 76.835938 14.054688 77.335938 14.265625 C 77.832031 14.472656 78.289062 14.753906 78.699219 15.105469 C 79.109375 15.457031 79.453125 15.863281 79.734375 16.324219 C 80.019531 16.785156 80.222656 17.277344 80.351562 17.800781 C 80.550781 18.757812 80.699219 19.722656 80.792969 20.699219 L 70.375 20.699219 C 70.183594 23.453125 71.664062 25.667969 73.761719 26.199219 C 76.371094 26.84375 78.605469 25.710938 79.417969 23.226562 C 79.597656 22.589844 79.925781 22.5 80.503906 22.679688 Z M 70.375 19.816406 L 79.6875 19.816406 C 79.628906 16.882812 77.800781 14.757812 75.324219 14.726562 C 72.519531 14.679688 70.496094 16.726562 70.375 19.816406 Z M 70.375 19.816406 " fill-opacity="1" fill-rule="nonzero"/><path fill="#ffffff" d="M 82.421875 22.746094 L 83.335938 22.746094 C 83.371094 23.429688 83.582031 24.054688 83.96875 24.625 C 84.355469 25.191406 84.859375 25.613281 85.484375 25.898438 C 86.265625 26.25 87.082031 26.414062 87.9375 26.390625 C 88.792969 26.367188 89.601562 26.160156 90.363281 25.769531 C 90.78125 25.578125 91.109375 25.289062 91.34375 24.894531 C 91.582031 24.5 91.683594 24.070312 91.648438 23.613281 C 91.675781 23.167969 91.5625 22.761719 91.3125 22.394531 C 91.066406 22.027344 90.730469 21.769531 90.3125 21.625 C 89.308594 21.25 88.238281 21.046875 87.214844 20.71875 C 86.148438 20.414062 85.113281 20.035156 84.101562 19.578125 C 82.453125 18.773438 82.351562 15.640625 84.21875 14.648438 C 85.1875 14.101562 86.230469 13.816406 87.347656 13.800781 C 88.460938 13.785156 89.511719 14.035156 90.5 14.550781 C 90.792969 14.714844 91.054688 14.917969 91.289062 15.160156 C 91.519531 15.402344 91.710938 15.675781 91.863281 15.976562 C 92.011719 16.277344 92.113281 16.59375 92.164062 16.925781 C 92.21875 17.257812 92.21875 17.589844 92.171875 17.925781 L 91.386719 17.925781 C 91.386719 17.886719 91.316406 17.851562 91.316406 17.816406 C 91.21875 15.3125 89.121094 14.539062 86.867188 14.757812 C 86.191406 14.839844 85.546875 15.035156 84.9375 15.34375 C 84.566406 15.515625 84.277344 15.777344 84.070312 16.128906 C 83.867188 16.484375 83.78125 16.867188 83.820312 17.273438 C 83.820312 17.683594 83.9375 18.054688 84.175781 18.386719 C 84.410156 18.71875 84.722656 18.953125 85.105469 19.089844 C 86.097656 19.449219 87.132812 19.679688 88.148438 19.964844 C 88.96875 20.191406 89.816406 20.335938 90.609375 20.609375 C 91.179688 20.796875 91.648438 21.128906 92.011719 21.605469 C 92.378906 22.085938 92.574219 22.625 92.601562 23.226562 C 92.652344 23.546875 92.648438 23.871094 92.59375 24.191406 C 92.539062 24.511719 92.4375 24.816406 92.289062 25.105469 C 92.140625 25.394531 91.949219 25.652344 91.71875 25.882812 C 91.488281 26.109375 91.226562 26.296875 90.9375 26.445312 C 88.785156 27.660156 85.246094 27.339844 83.671875 25.800781 C 82.828125 24.957031 82.414062 23.9375 82.421875 22.746094 Z M 82.421875 22.746094 " fill-opacity="1" fill-rule="nonzero"/><path fill="#ffffff" d="M 104.1875 17.925781 L 103.332031 17.925781 C 103.332031 17.808594 103.285156 17.707031 103.273438 17.609375 C 103.265625 17.289062 103.207031 16.976562 103.089844 16.675781 C 102.976562 16.378906 102.816406 16.105469 102.609375 15.859375 C 102.402344 15.617188 102.160156 15.414062 101.882812 15.25 C 101.605469 15.089844 101.308594 14.980469 100.996094 14.917969 C 99.769531 14.566406 98.566406 14.625 97.382812 15.09375 C 96.917969 15.226562 96.535156 15.488281 96.242188 15.875 C 95.949219 16.261719 95.796875 16.699219 95.792969 17.183594 C 95.785156 17.417969 95.816406 17.644531 95.886719 17.867188 C 95.957031 18.085938 96.0625 18.289062 96.203125 18.476562 C 96.347656 18.660156 96.511719 18.816406 96.707031 18.945312 C 96.902344 19.070312 97.113281 19.164062 97.339844 19.21875 C 98.625 19.617188 99.945312 19.859375 101.253906 20.222656 C 101.675781 20.324219 102.09375 20.449219 102.5 20.601562 C 103.125 20.824219 103.628906 21.203125 104.019531 21.742188 C 104.410156 22.277344 104.613281 22.875 104.632812 23.539062 C 104.652344 24.199219 104.484375 24.808594 104.125 25.367188 C 103.769531 25.925781 103.285156 26.332031 102.675781 26.59375 C 101.757812 27.007812 100.792969 27.222656 99.785156 27.234375 C 98.777344 27.242188 97.808594 27.050781 96.882812 26.652344 C 96.503906 26.488281 96.160156 26.273438 95.851562 26.003906 C 95.539062 25.738281 95.277344 25.429688 95.058594 25.082031 C 94.84375 24.730469 94.683594 24.359375 94.582031 23.960938 C 94.480469 23.5625 94.441406 23.160156 94.460938 22.75 L 95.300781 22.75 C 95.375 23.125 95.496094 23.484375 95.664062 23.828125 C 95.828125 24.171875 96.03125 24.488281 96.273438 24.785156 C 96.515625 25.078125 96.789062 25.339844 97.097656 25.566406 C 97.402344 25.792969 97.730469 25.980469 98.082031 26.128906 C 98.433594 26.273438 98.800781 26.375 99.175781 26.433594 C 99.554688 26.492188 99.929688 26.503906 100.3125 26.472656 C 100.691406 26.4375 101.0625 26.359375 101.421875 26.234375 C 101.78125 26.109375 102.121094 25.945312 102.441406 25.738281 C 102.839844 25.53125 103.152344 25.230469 103.375 24.84375 C 103.597656 24.453125 103.699219 24.035156 103.679688 23.585938 C 103.699219 23.144531 103.582031 22.738281 103.332031 22.371094 C 103.078125 22.003906 102.742188 21.753906 102.320312 21.613281 C 101.316406 21.238281 100.246094 21.039062 99.226562 20.710938 C 98.152344 20.410156 97.109375 20.035156 96.089844 19.585938 C 94.480469 18.792969 94.351562 15.683594 96.1875 14.695312 C 96.671875 14.414062 97.183594 14.199219 97.722656 14.050781 C 98.261719 13.902344 98.8125 13.824219 99.371094 13.816406 C 99.929688 13.8125 100.480469 13.875 101.023438 14.011719 C 101.566406 14.148438 102.082031 14.351562 102.570312 14.621094 C 103.144531 14.964844 103.578125 15.433594 103.871094 16.035156 C 104.164062 16.632812 104.269531 17.261719 104.1875 17.925781 Z M 104.1875 17.925781 " fill-opacity="1" fill-rule="nonzero"/><path fill="#ffffff" d="M 48.128906 26.871094 C 47.960938 26.933594 47.785156 26.964844 47.605469 26.964844 C 47.425781 26.964844 47.25 26.933594 47.082031 26.867188 C 46.914062 26.804688 46.761719 26.710938 46.628906 26.59375 C 46.492188 26.472656 46.382812 26.335938 46.300781 26.175781 C 45.25 24.605469 44.09375 23.105469 42.980469 21.574219 L 42.496094 20.929688 C 41.171875 22.707031 39.84375 24.410156 38.636719 26.179688 C 38.472656 26.496094 38.226562 26.71875 37.894531 26.847656 C 37.566406 26.980469 37.234375 26.984375 36.898438 26.863281 L 41.871094 20.191406 L 37.246094 14.160156 C 37.589844 14.035156 37.933594 14.035156 38.277344 14.15625 C 38.621094 14.277344 38.890625 14.492188 39.078125 14.804688 C 40.15625 16.375 41.34375 17.871094 42.527344 19.460938 C 43.71875 17.886719 44.898438 16.378906 45.996094 14.824219 C 46.160156 14.511719 46.410156 14.296875 46.738281 14.171875 C 47.066406 14.050781 47.394531 14.050781 47.722656 14.179688 L 45.925781 16.558594 C 45.121094 17.621094 44.332031 18.691406 43.496094 19.726562 C 43.351562 19.855469 43.28125 20.015625 43.28125 20.207031 C 43.28125 20.398438 43.351562 20.558594 43.496094 20.683594 C 45.03125 22.726562 46.558594 24.773438 48.128906 26.871094 Z M 48.128906 26.871094 " fill-opacity="1" fill-rule="nonzero"/><path fill="#ffffff" d="M 69.25 14.09375 L 69.25 14.996094 C 68.921875 14.976562 68.597656 14.988281 68.277344 15.035156 C 67.953125 15.082031 67.640625 15.160156 67.332031 15.273438 C 67.027344 15.386719 66.734375 15.527344 66.460938 15.703125 C 66.183594 15.875 65.929688 16.074219 65.695312 16.304688 C 65.460938 16.53125 65.253906 16.777344 65.070312 17.050781 C 64.890625 17.320312 64.738281 17.605469 64.617188 17.910156 C 64.492188 18.210938 64.40625 18.523438 64.347656 18.84375 C 64.292969 19.167969 64.269531 19.492188 64.28125 19.816406 C 64.28125 21.9375 64.28125 24.054688 64.28125 26.175781 C 64.28125 26.398438 64.28125 26.625 64.28125 26.894531 L 63.359375 26.894531 L 63.359375 14.148438 L 64.261719 14.148438 L 64.261719 16.757812 C 65.375 14.855469 67.09375 14.148438 69.25 14.09375 Z M 69.25 14.09375 " fill-opacity="1" fill-rule="nonzero"/><path fill="#ffffff" d="M 24.980469 20.105469 C 25.113281 19.460938 25.199219 18.761719 25.386719 18.105469 C 26.5 14.148438 31.035156 12.5 34.15625 14.949219 C 35.984375 16.386719 36.441406 18.417969 36.351562 20.710938 L 26.054688 20.710938 C 25.886719 24.804688 28.839844 27.273438 32.617188 26.011719 C 33.242188 25.789062 33.773438 25.433594 34.214844 24.941406 C 34.65625 24.449219 34.953125 23.882812 35.109375 23.238281 C 35.308594 22.597656 35.628906 22.488281 36.242188 22.671875 C 36.140625 23.46875 35.871094 24.199219 35.433594 24.867188 C 34.992188 25.539062 34.429688 26.078125 33.746094 26.488281 C 33.183594 26.796875 32.59375 27.007812 31.964844 27.125 C 31.339844 27.246094 30.707031 27.261719 30.074219 27.183594 C 29.441406 27.101562 28.835938 26.925781 28.261719 26.652344 C 27.683594 26.378906 27.164062 26.027344 26.699219 25.589844 C 25.753906 24.527344 25.226562 23.285156 25.113281 21.871094 C 25.113281 21.648438 25.03125 21.429688 24.988281 21.226562 C 24.980469 20.84375 24.980469 20.46875 24.980469 20.105469 Z M 26.066406 19.828125 L 35.378906 19.828125 C 35.320312 16.863281 33.449219 14.757812 30.953125 14.738281 C 28.171875 14.699219 26.183594 16.757812 26.0625 19.816406 Z M 26.066406 19.828125 " fill-opacity="1" fill-rule="nonzero"/></svg>